<?xml version="1.0" encoding="UTF-8"?>
<svg version="1.1" xmlns="http://www.w3.org/2000/svg" width="656" height="1969">
<path d="M0 0 C3.90088417 3.16442004 7.7234217 5.76966573 12.3125 7.875 C12.39242187 7.25238281 12.47234375 6.62976563 12.5546875 5.98828125 C13.3125 3.875 13.3125 3.875 15.1328125 2.79296875 C20.19663707 1.18799385 24.03820287 0.36805796 29.3125 1.875 C31.65418764 5.38753146 31.80873677 6.73969356 31.3125 10.875 C30.620354 11.6079126 29.92820801 12.3408252 29.21508789 13.09594727 C26.94828468 15.79990331 26.94828468 15.79990331 27.51342773 19.39819336 C27.81599244 20.75953948 28.14535625 22.11510605 28.49609375 23.46484375 C28.66601334 24.19785202 28.83593292 24.93086029 29.01100159 25.68608093 C29.56841075 28.06746139 30.15916826 30.43921454 30.75 32.8125 C31.13723709 34.44717041 31.5219949 36.08243009 31.90429688 37.71826172 C32.84524553 41.72390778 33.81059342 45.7230928 34.7868042 49.72027588 C35.76618995 53.73458623 36.7287092 57.75272403 37.67211914 61.77563477 C38.08213417 63.5199572 38.50346017 65.26168335 38.93920898 66.99975586 C42.2074678 80.70595402 42.2074678 80.70595402 38.70825195 86.55786133 C35.71683856 89.45111564 33.67363438 89.90682724 29.60546875 90.67578125 C28.96184891 90.80188278 28.31822906 90.92798431 27.65510559 91.0579071 C26.29782899 91.31998723 24.93865542 91.57240777 23.57788086 91.81567383 C21.51292304 92.18518749 19.45505395 92.58288492 17.39648438 92.98632812 C5.42796825 95.26406027 5.42796825 95.26406027 -0.6875 94.875 C-4.41989696 91.53548693 -5.0067674 88.69351897 -5.6875 83.875 C-9.54411357 84.65028459 -13.3993886 85.43191267 -17.25366211 86.21875 C-19.18865379 86.61251619 -21.12458699 87.0016469 -23.06054688 87.390625 C-29.48476311 88.70504264 -35.82063858 90.14993916 -42.140625 91.9140625 C-49.98735714 94.05505913 -57.84019396 95.33255776 -65.875 96.5 C-67.24686502 96.7049259 -68.61861046 96.91065394 -69.99023438 97.1171875 C-72.63944353 97.51594204 -75.28902018 97.91177581 -77.93896484 98.30566406 C-83.19834314 99.10447025 -88.44409544 99.97789834 -93.6875 100.875 C-93.64435669 102.0973938 -93.64435669 102.0973938 -93.6003418 103.34448242 C-93.31838321 111.33330912 -93.31838321 111.33330912 -94.890625 113.640625 C-98.8915622 116.38909491 -104.01784685 116.87031705 -108.6875 117.875 C-109.48124023 118.05240723 -110.27498047 118.22981445 -111.09277344 118.41259766 C-113.72548109 118.99847201 -116.36182633 119.56428836 -119 120.125 C-119.84747803 120.31247803 -120.69495605 120.49995605 -121.56811523 120.69311523 C-126.47546694 121.70122397 -130.84821461 122.58227584 -135.6875 120.875 C-139.66066481 114.43367872 -140.95325175 107.94808561 -142.265625 100.5625 C-142.48192566 99.39420654 -142.69822632 98.22591309 -142.92108154 97.0222168 C-143.37377961 94.56242449 -143.82055277 92.10153518 -144.26171875 89.63964844 C-144.93579211 85.88451434 -145.63043692 82.13362295 -146.328125 78.3828125 C-146.76684715 75.98459825 -147.20438712 73.58616738 -147.640625 71.1875 C-147.84681458 70.07270264 -148.05300415 68.95790527 -148.26544189 67.80932617 C-149.28519399 62.06695614 -149.9184567 56.70709736 -149.6875 50.875 C-150.43 50.7925 -151.1725 50.71 -151.9375 50.625 C-155.32980315 49.69982641 -156.66685699 48.75053044 -158.6875 45.875 C-158.62093728 42.61342686 -158.29576713 40.67680667 -156.3125 38.0625 C-153.00803327 35.64769739 -149.93673543 35.76618547 -146 35.8125 C-145.00613281 35.82152344 -144.01226562 35.83054687 -142.98828125 35.83984375 C-141.84939453 35.85724609 -141.84939453 35.85724609 -140.6875 35.875 C-140.6875 36.535 -140.6875 37.195 -140.6875 37.875 C-136.85554458 36.59768153 -136.45541746 35.2868548 -134.4375 31.8515625 C-133.8290625 30.830625 -133.220625 29.8096875 -132.59375 28.7578125 C-131.9646875 27.68273437 -131.335625 26.60765625 -130.6875 25.5 C-129.44140081 23.38571695 -128.19155427 21.27363684 -126.9375 19.1640625 C-126.38578125 18.22256348 -125.8340625 17.28106445 -125.265625 16.31103516 C-122.73674808 12.4073944 -120.84654678 10.63586122 -116.30688477 9.46801758 C-115.4119783 9.2335643 -114.51707184 8.99911102 -113.595047 8.7575531 C-112.61622055 8.51400589 -111.6373941 8.27045868 -110.62890625 8.01953125 C-109.59694626 7.75628555 -108.56498627 7.49303986 -107.50175476 7.22181702 C-104.08839581 6.36042604 -100.67030246 5.52087529 -97.25 4.6875 C-96.08343872 4.4017511 -94.91687744 4.1160022 -93.71496582 3.82159424 C-75.57207345 -0.58564994 -57.3671397 -4.26745537 -38.9375 -7.25 C-37.8258548 -7.43992523 -36.71420959 -7.62985046 -35.56887817 -7.82553101 C-32.40959072 -8.35836382 -29.24674786 -8.84657424 -26.078125 -9.3203125 C-25.15529221 -9.47982895 -24.23245941 -9.6393454 -23.28166199 -9.80369568 C-13.53883655 -11.13538803 -7.23576139 -5.89313568 0 0 Z " fill="#FFFFFF" transform="translate(168.6875,269.125)"/>
<path d="M0 0 C5.61169719 5.29446674 9.54990511 10.82390873 10.23535156 18.70654297 C10.2939653 21.64368742 10.26265122 24.56332158 10.1875 27.5 C10.16719727 29.01980469 10.16719727 29.01980469 10.14648438 30.5703125 C10.11143063 33.04744404 10.06229764 35.52342927 10 38 C10.81984375 37.95359375 11.6396875 37.9071875 12.484375 37.859375 C13.56203125 37.82328125 14.6396875 37.7871875 15.75 37.75 C16.81734375 37.70359375 17.8846875 37.6571875 18.984375 37.609375 C22.77488107 38.1003732 23.66691212 39.0265293 26 42 C26.50793457 44.76989746 26.50793457 44.76989746 26.51757812 47.99023438 C26.53018677 49.19828735 26.54279541 50.40634033 26.55578613 51.65100098 C26.54768921 52.95210815 26.53959229 54.25321533 26.53125 55.59375 C26.53394584 56.94608845 26.53782903 58.29842501 26.54284668 59.65075684 C26.54873759 62.48204034 26.54019293 65.31281833 26.52148438 68.14404297 C26.49869382 71.76926663 26.51181927 75.3933058 26.53577423 79.01848602 C26.55024396 81.81012868 26.54562111 84.60149152 26.53526306 87.3931427 C26.53130545 89.37843598 26.54343166 91.36374024 26.55578613 93.34899902 C26.54317749 94.557052 26.53056885 95.76510498 26.51757812 97.00976562 C26.51439575 98.07247681 26.51121338 99.13518799 26.50793457 100.23010254 C26 103 26 103 24.46826172 105.34303284 C21.04798328 107.63909772 17.97104922 107.55265424 13.99023438 107.50170898 C13.18652908 107.50711197 12.38282379 107.51251495 11.55476379 107.51808167 C8.90071678 107.53057889 6.24775246 107.51407188 3.59375 107.49609375 C1.74816837 107.49624872 -0.0974136 107.49773729 -1.94299316 107.50050354 C-5.80996089 107.50188798 -9.67655791 107.48932208 -13.54345703 107.46655273 C-18.50021302 107.43816795 -23.45635303 107.44090482 -28.4131546 107.45364285 C-32.22386944 107.46059782 -36.03444189 107.45281282 -39.84513855 107.44038582 C-41.67277989 107.43586955 -43.5004365 107.43553605 -45.32807922 107.43945122 C-47.88244965 107.44236167 -50.43597121 107.42586489 -52.99023438 107.40405273 C-53.74568039 107.40855438 -54.5011264 107.41305603 -55.27946472 107.41769409 C-58.32212825 107.37452438 -60.69271535 107.14260736 -63.46826172 105.85450745 C-65.6609638 103.19975735 -65.50771707 101.34311904 -65.51757812 97.92382812 C-65.53018677 96.67243042 -65.54279541 95.42103271 -65.55578613 94.13171387 C-65.54862652 92.76488686 -65.54042258 91.39806498 -65.53125 90.03125 C-65.53394457 88.63024628 -65.5378267 87.22924439 -65.54284668 85.82824707 C-65.54874354 82.89264106 -65.54017363 79.95752204 -65.52148438 77.02197266 C-65.49869363 73.25875336 -65.51181587 69.49667504 -65.53577423 65.73349762 C-65.55022778 62.8406718 -65.5456285 59.94811656 -65.53526306 57.05528259 C-65.53259449 55.66779953 -65.53587018 54.28029191 -65.54518127 52.89283752 C-65.55533739 50.95395374 -65.53711291 49.01498385 -65.51757812 47.07617188 C-65.51439575 45.97269409 -65.51121338 44.86921631 -65.50793457 43.7322998 C-65 41 -65 41 -63.14245605 39.1385498 C-60.36517332 37.66263869 -58.37595764 37.70085866 -55.25 37.8125 C-54.26515625 37.83957031 -53.2803125 37.86664063 -52.265625 37.89453125 C-51.51796875 37.92933594 -50.7703125 37.96414062 -50 38 C-50.02094727 37.38592285 -50.04189453 36.7718457 -50.06347656 36.13916016 C-50.14768034 33.30127983 -50.19898423 30.46366348 -50.25 27.625 C-50.28351563 26.65949219 -50.31703125 25.69398437 -50.3515625 24.69921875 C-50.46195207 16.47519606 -48.84175704 9.90130317 -43.95703125 3.1953125 C-31.27952058 -9.04345007 -14.13669289 -12.26446293 0 0 Z M-34.3125 11.5 C-36.94610875 15.4016426 -38.25636054 18.00387758 -38.1953125 22.765625 C-38.19031738 23.56774414 -38.18532227 24.36986328 -38.18017578 25.19628906 C-38.16196777 26.20401367 -38.14375977 27.21173828 -38.125 28.25 C-38.08375 31.4675 -38.0425 34.685 -38 38 C-26.12 38 -14.24 38 -2 38 C-1.9175 34.844375 -1.835 31.68875 -1.75 28.4375 C-1.69537598 26.9668811 -1.69537598 26.9668811 -1.63964844 25.46655273 C-1.55309457 18.58203041 -2.84933735 14.43568592 -7.59765625 9.2578125 C-16.48145878 2.38767188 -26.68988044 3.25933021 -34.3125 11.5 Z " fill="#FFFFFF" transform="translate(129,53)"/>
</svg>
