<?xml version="1.0" encoding="UTF-8"?>
<svg version="1.1" xmlns="http://www.w3.org/2000/svg" width="394" height="469">
<path d="M0 0 C1.18230698 -0.00637985 2.36461395 -0.0127597 3.58274841 -0.01933289 C5.50450645 -0.02100212 5.50450645 -0.02100212 7.46508789 -0.02270508 C8.79968806 -0.02592158 10.13428788 -0.02928595 11.46888733 -0.03279114 C14.27239801 -0.03878289 17.07587789 -0.04063133 19.87939453 -0.04003906 C23.43963555 -0.03993821 26.99967365 -0.05350953 30.55986691 -0.07081127 C33.32173024 -0.08204312 36.08354656 -0.08395477 38.84543037 -0.08342934 C40.78604238 -0.08515696 42.7266397 -0.09593852 44.66722107 -0.10697937 C52.40796797 -0.08730821 59.65706414 0.68449396 67.25024414 2.14526367 C69.99650656 2.55827977 72.74579537 2.9132055 75.50024414 3.27026367 C76.78415039 3.4378418 78.06805664 3.60541992 79.39086914 3.77807617 C80.33446289 3.89924805 81.27805664 4.02041992 82.25024414 4.14526367 C82.25024414 4.80526367 82.25024414 5.46526367 82.25024414 6.14526367 C83.26086914 6.20713867 84.27149414 6.26901367 85.31274414 6.33276367 C95.28953131 7.575424 105.24039442 11.87744012 114.25024414 16.14526367 C114.25024414 16.80526367 114.25024414 17.46526367 114.25024414 18.14526367 C115.3446582 18.31541992 115.3446582 18.31541992 116.46118164 18.48901367 C130.90722007 21.88808154 145.75902748 37.61732488 154.25024414 49.14526367 C154.25024414 49.80526367 154.25024414 50.46526367 154.25024414 51.14526367 C155.24024414 51.47526367 156.23024414 51.80526367 157.25024414 52.14526367 C158.30613483 53.77709474 159.29385674 55.45319366 160.25024414 57.14526367 C161.39493164 58.63026367 161.39493164 58.63026367 162.56274414 60.14526367 C166.54235555 65.62936232 171.25024414 73.28087601 171.25024414 80.14526367 C171.91024414 80.14526367 172.57024414 80.14526367 173.25024414 80.14526367 C173.5402832 81.14106445 173.5402832 81.14106445 173.83618164 82.15698242 C175.37326447 87.47166459 175.37326447 87.47166459 177.31274414 92.64526367 C178.58273491 96.03190573 179.14921468 99.48166108 179.78540039 103.03588867 C180.04641199 105.1208862 180.04641199 105.1208862 181.25024414 106.14526367 C181.5381797 108.13103917 181.76624547 110.1255536 181.96899414 112.12182617 C182.09661133 113.35030273 182.22422852 114.5787793 182.35571289 115.84448242 C182.55100586 117.78774414 182.55100586 117.78774414 182.75024414 119.77026367 C183.00954588 122.30423218 183.26993015 124.83809018 183.53149414 127.37182617 C183.64557617 128.50185059 183.7596582 129.631875 183.87719727 130.79614258 C184.2628413 134.25835782 184.74054363 137.6993163 185.25024414 141.14526367 C185.91024414 141.14526367 186.57024414 141.14526367 187.25024414 141.14526367 C187.25024414 142.13526367 187.25024414 143.12526367 187.25024414 144.14526367 C187.91024414 144.14526367 188.57024414 144.14526367 189.25024414 144.14526367 C189.27524009 150.01277365 189.2932421 155.88025162 189.30517578 161.74780273 C189.3101586 163.73771709 189.31694728 165.72762788 189.32568359 167.7175293 C189.33801789 170.60230397 189.34353302 173.48702965 189.34790039 176.37182617 C189.35306168 177.24014069 189.35822296 178.1084552 189.36354065 179.00308228 C189.36397521 183.95009454 189.15420836 188.8359557 188.77539062 193.76904297 C188.21801161 201.07104552 187.98066942 208.36432602 187.8046875 215.6826992 C187.74877061 217.99927929 187.68851048 220.31571315 187.62719727 222.63215637 C187.45399908 229.20579551 187.28886421 235.77963196 187.12524414 242.35351562 C187.02416992 246.40273217 186.91867073 250.45181467 186.81054688 254.50084877 C186.75110314 256.78029299 186.69692218 259.0598249 186.64282227 261.33940125 C186.60600223 262.72936764 186.56890802 264.11932681 186.53149414 265.50927734 C186.50120117 266.72169601 186.4709082 267.93411469 186.43969727 269.18327332 C186.25024414 272.14526367 186.25024414 272.14526367 185.25024414 275.14526367 C184.59024414 275.14526367 183.93024414 275.14526367 183.25024414 275.14526367 C182.98211914 276.09401367 182.71399414 277.04276367 182.43774414 278.02026367 C181.25024414 281.14526367 181.25024414 281.14526367 178.25024414 283.14526367 C177.26024414 283.14526367 176.27024414 283.14526367 175.25024414 283.14526367 C175.25024414 283.80526367 175.25024414 284.46526367 175.25024414 285.14526367 C172.03573145 286.75252002 168.81411878 286.20274552 165.25024414 286.14526367 C165.21286133 287.32604492 165.17547852 288.50682617 165.13696289 289.72338867 C165.07129265 291.28071155 165.00484567 292.83800181 164.93774414 294.39526367 C164.91518555 295.17256836 164.89262695 295.94987305 164.86938477 296.75073242 C164.70694522 300.20626452 164.53813243 302.60433237 162.89477539 305.69213867 C161.25024414 307.14526367 161.25024414 307.14526367 158.25024414 307.14526367 C158.25024414 307.80526367 158.25024414 308.46526367 158.25024414 309.14526367 C155.34424153 310.40191345 153.4541983 311.14526367 150.25024414 311.14526367 C150.25024414 311.80526367 150.25024414 312.46526367 150.25024414 313.14526367 C149.59024414 313.14526367 148.93024414 313.14526367 148.25024414 313.14526367 C148.16983887 313.73428467 148.08943359 314.32330566 148.0065918 314.93017578 C147.63331939 317.64824852 147.25431335 320.36549355 146.87524414 323.08276367 C146.68575195 324.47205078 146.68575195 324.47205078 146.49243164 325.8894043 C145.89013271 330.18078416 145.23214407 334.39917755 144.21899414 338.61401367 C142.98281668 343.92791746 142.56357333 349.27894884 142.12524414 354.70776367 C141.99569336 356.22080078 141.99569336 356.22080078 141.86352539 357.7644043 C141.65367755 360.22428732 141.44935947 362.6844927 141.25024414 365.14526367 C139.93024414 365.47526367 138.61024414 365.80526367 137.25024414 366.14526367 C136.92024414 365.15526367 136.59024414 364.16526367 136.25024414 363.14526367 C135.26024414 363.14526367 134.27024414 363.14526367 133.25024414 363.14526367 C133.1896582 363.85553711 133.12907227 364.56581055 133.06665039 365.29760742 C132.9409668 366.67625977 132.9409668 366.67625977 132.81274414 368.08276367 C132.7315332 368.99928711 132.65032227 369.91581055 132.56665039 370.86010742 C132.25024414 373.14526367 132.25024414 373.14526367 131.25024414 374.14526367 C130.72611295 377.4484214 130.2041348 380.74762563 129.79516602 384.06713867 C129.15883273 388.06904977 128.46637255 390.38262794 125.28149414 393.01245117 C124.28118164 393.7162793 123.28086914 394.42010742 122.25024414 395.14526367 C121.10555664 396.32088867 121.10555664 396.32088867 119.93774414 397.52026367 C113.03117559 404.26621435 103.4172865 413.08958288 94.25024414 416.14526367 C92.53915726 417.76629335 90.87771108 419.4402983 89.25024414 421.14526367 C88.44586914 421.92901367 87.64149414 422.71276367 86.81274414 423.52026367 C84.88253616 425.49754989 83.13232461 427.46214931 81.37524414 429.58276367 C78.79207162 432.64405553 75.99775442 435.18820672 72.91430664 437.73510742 C71.3942844 439.02320138 69.97158296 440.42392485 68.56274414 441.83276367 C66.54609631 443.8494115 64.63276562 445.58430132 62.25024414 447.14526367 C61.59024414 447.14526367 60.93024414 447.14526367 60.25024414 447.14526367 C59.59024414 448.46526367 58.93024414 449.78526367 58.25024414 451.14526367 C57.59024414 451.14526367 56.93024414 451.14526367 56.25024414 451.14526367 C55.59024414 452.46526367 54.93024414 453.78526367 54.25024414 455.14526367 C53.26024414 455.14526367 52.27024414 455.14526367 51.25024414 455.14526367 C50.92024414 456.13526367 50.59024414 457.12526367 50.25024414 458.14526367 C48.18774414 458.83276367 48.18774414 458.83276367 46.25024414 459.14526367 C46.25024414 459.80526367 46.25024414 460.46526367 46.25024414 461.14526367 C43.60285498 462.60589218 42.3557608 463.14526367 39.25024414 463.14526367 C39.25024414 463.80526367 39.25024414 464.46526367 39.25024414 465.14526367 C32.06971955 468.63428213 26.20902404 469.68997104 18.25024414 469.14526367 C18.25024414 468.48526367 18.25024414 467.82526367 18.25024414 467.14526367 C16.91993164 467.20713867 16.91993164 467.20713867 15.56274414 467.27026367 C12.27747401 467.14629121 10.19575119 466.53138464 7.25024414 465.14526367 C7.25024414 464.48526367 7.25024414 463.82526367 7.25024414 463.14526367 C6.38206055 462.96543945 6.38206055 462.96543945 5.49633789 462.78198242 C-1.18880089 460.88689091 -5.52661006 456.45126737 -9.74975586 451.14526367 C-10.89572085 450.12160585 -12.06368864 449.12217495 -13.24975586 448.14526367 C-16.51403764 445.4437891 -19.03493965 442.40304312 -21.74975586 439.14526367 C-22.94118398 438.10474978 -24.15037678 437.08429551 -25.37475586 436.08276367 C-28.24638479 433.7083865 -29.96490562 431.44723662 -31.74975586 428.14526367 C-32.30663086 427.58838867 -32.86350586 427.03151367 -33.43725586 426.45776367 C-33.87038086 426.02463867 -34.30350586 425.59151367 -34.74975586 425.14526367 C-34.74975586 424.48526367 -34.74975586 423.82526367 -34.74975586 423.14526367 C-35.40975586 423.14526367 -36.06975586 423.14526367 -36.74975586 423.14526367 C-38.09016994 421.81904889 -39.42244744 420.48459481 -40.74975586 419.14526367 C-42.22196831 418.16470426 -43.72580506 417.23080611 -45.24975586 416.33276367 C-51.08520646 412.69549094 -56.60654919 408.68301467 -62.12475586 404.58276367 C-62.99293945 403.94556396 -63.86112305 403.30836426 -64.75561523 402.65185547 C-69.42952042 399.15141232 -73.16590735 395.74615027 -76.74975586 391.14526367 C-77.40975586 390.81526367 -78.06975586 390.48526367 -78.74975586 390.14526367 C-79.36438445 387.48971527 -79.87367103 384.89264542 -80.31225586 382.20776367 C-81.03614377 377.0280467 -81.03614377 377.0280467 -82.74975586 372.14526367 C-82.97443416 370.60857502 -83.15772391 369.06558313 -83.31225586 367.52026367 C-83.39604492 366.70299805 -83.47983398 365.88573242 -83.56616211 365.04370117 C-83.62674805 364.4172168 -83.68733398 363.79073242 -83.74975586 363.14526367 C-84.73975586 363.14526367 -85.72975586 363.14526367 -86.74975586 363.14526367 C-87.07975586 364.13526367 -87.40975586 365.12526367 -87.74975586 366.14526367 C-89.06975586 365.81526367 -90.38975586 365.48526367 -91.74975586 365.14526367 C-91.79463135 364.56784424 -91.83950684 363.9904248 -91.88574219 363.39550781 C-92.72511516 352.84115054 -93.70875532 342.4292912 -95.70727539 332.02661133 C-96.88977344 325.75708296 -97.42870816 319.51086459 -97.74975586 313.14526367 C-98.73975586 313.14526367 -99.72975586 313.14526367 -100.74975586 313.14526367 C-100.74975586 312.48526367 -100.74975586 311.82526367 -100.74975586 311.14526367 C-101.51288086 311.00088867 -102.27600586 310.85651367 -103.06225586 310.70776367 C-105.74975586 310.14526367 -105.74975586 310.14526367 -108.74975586 309.14526367 C-108.74975586 308.48526367 -108.74975586 307.82526367 -108.74975586 307.14526367 C-109.38913086 307.00088867 -110.02850586 306.85651367 -110.68725586 306.70776367 C-112.74975586 306.14526367 -112.74975586 306.14526367 -113.74975586 305.14526367 C-113.82295207 302.44871514 -113.84218123 299.77834909 -113.81225586 297.08276367 C-113.80774414 296.32415039 -113.80323242 295.56553711 -113.79858398 294.78393555 C-113.78676266 292.90434496 -113.76882664 291.02479468 -113.74975586 289.14526367 C-114.40975586 289.14526367 -115.06975586 289.14526367 -115.74975586 289.14526367 C-115.74975586 288.15526367 -115.74975586 287.16526367 -115.74975586 286.14526367 C-117.66788086 286.17620117 -117.66788086 286.17620117 -119.62475586 286.20776367 C-123.49975586 286.27026367 -123.49975586 286.27026367 -125.74975586 285.14526367 C-125.74975586 284.48526367 -125.74975586 283.82526367 -125.74975586 283.14526367 C-126.34788086 283.04213867 -126.94600586 282.93901367 -127.56225586 282.83276367 C-130.11292351 282.03112527 -131.11667581 281.24493803 -132.74975586 279.14526367 C-133.43725586 276.95776367 -133.43725586 276.95776367 -133.74975586 275.14526367 C-134.40975586 275.14526367 -135.06975586 275.14526367 -135.74975586 275.14526367 C-136.69322291 272.31486253 -136.92591526 270.38802939 -137.03100586 267.44213867 C-137.06774414 266.42474609 -137.10448242 265.40735352 -137.14233398 264.35913086 C-137.1777832 263.21605469 -137.21323242 262.07297852 -137.24975586 260.89526367 C-137.29036133 259.68773437 -137.3309668 258.48020508 -137.37280273 257.23608398 C-137.67270408 247.83253003 -137.84227625 238.42713776 -137.99975586 229.02026367 C-138.02074341 227.78213928 -138.04173096 226.54401489 -138.06335449 225.26837158 C-138.16923718 218.95366292 -138.26802912 212.63894179 -138.35717773 206.32397461 C-138.39417663 203.96752756 -138.43128136 201.61108217 -138.46850586 199.25463867 C-138.48204102 198.14862305 -138.49557617 197.04260742 -138.50952148 195.90307617 C-138.5262793 194.89470703 -138.54303711 193.88633789 -138.56030273 192.84741211 C-138.57283081 191.96003357 -138.58535889 191.07265503 -138.5982666 190.15838623 C-138.5295231 188.1481455 -138.5295231 188.1481455 -139.74975586 187.14526367 C-139.84244585 185.79431385 -139.86722912 184.43859276 -139.86328125 183.08447266 C-139.86320572 182.22365585 -139.86313019 181.36283905 -139.86305237 180.47593689 C-139.85789108 179.54052567 -139.8527298 178.60511444 -139.84741211 177.64135742 C-139.84599716 176.68834244 -139.84458221 175.73532745 -139.84312439 174.75343323 C-139.83750738 171.69651202 -139.82495202 168.6396629 -139.81225586 165.58276367 C-139.80724305 163.51570743 -139.80267976 161.44865005 -139.79858398 159.3815918 C-139.78753242 154.30278779 -139.77025641 149.22403797 -139.74975586 144.14526367 C-139.08975586 144.14526367 -138.42975586 144.14526367 -137.74975586 144.14526367 C-137.74975586 143.15526367 -137.74975586 142.16526367 -137.74975586 141.14526367 C-137.08975586 141.14526367 -136.42975586 141.14526367 -135.74975586 141.14526367 C-135.54623004 139.43478072 -135.34290115 137.72427418 -135.14038086 136.01367188 C-134.96136103 134.50171116 -134.7816592 132.98983106 -134.60131836 131.47802734 C-134.11789518 127.39452823 -133.65764417 123.31046742 -133.24194336 119.21948242 C-133.11795166 118.02427979 -133.11795166 118.02427979 -132.99145508 116.80493164 C-132.83386641 115.27457054 -132.68158978 113.74365027 -132.53540039 112.2121582 C-132.08938001 107.93250972 -131.21042919 104.18359582 -129.74975586 100.14526367 C-129.41275083 98.69239755 -129.09794594 97.23408522 -128.81225586 95.77026367 C-127.87153251 91.35035714 -126.41473034 87.34389497 -124.74975586 83.14526367 C-124.41975586 82.15526367 -124.08975586 81.16526367 -123.74975586 80.14526367 C-123.08975586 80.14526367 -122.42975586 80.14526367 -121.74975586 80.14526367 C-121.60538086 79.38213867 -121.46100586 78.61901367 -121.31225586 77.83276367 C-120.74975586 75.14526367 -120.74975586 75.14526367 -119.74975586 72.14526367 C-119.08975586 72.14526367 -118.42975586 72.14526367 -117.74975586 72.14526367 C-117.60538086 71.38213867 -117.46100586 70.61901367 -117.31225586 69.83276367 C-116.74975586 67.14526367 -116.74975586 67.14526367 -115.74975586 64.14526367 C-115.08975586 64.14526367 -114.42975586 64.14526367 -113.74975586 64.14526367 C-113.08975586 62.16526367 -112.42975586 60.18526367 -111.74975586 58.14526367 C-111.08975586 58.14526367 -110.42975586 58.14526367 -109.74975586 58.14526367 C-109.52288086 57.25838867 -109.29600586 56.37151367 -109.06225586 55.45776367 C-107.55967903 51.66554596 -105.71668548 49.89510088 -102.74975586 47.14526367 C-102.19288086 46.38213867 -101.63600586 45.61901367 -101.06225586 44.83276367 C-100.62913086 44.27588867 -100.19600586 43.71901367 -99.74975586 43.14526367 C-99.08975586 43.14526367 -98.42975586 43.14526367 -97.74975586 43.14526367 C-97.08975586 41.82526367 -96.42975586 40.50526367 -95.74975586 39.14526367 C-95.08975586 39.14526367 -94.42975586 39.14526367 -93.74975586 39.14526367 C-93.08975586 37.82526367 -92.42975586 36.50526367 -91.74975586 35.14526367 C-91.08975586 35.14526367 -90.42975586 35.14526367 -89.74975586 35.14526367 C-89.54737305 34.57807617 -89.34499023 34.01088867 -89.13647461 33.42651367 C-87.23289711 30.29499464 -84.56112788 28.6233771 -81.56225586 26.64526367 C-80.97653809 26.25089111 -80.39082031 25.85651855 -79.78735352 25.45019531 C-68.85346165 18.14526367 -68.85346165 18.14526367 -64.74975586 18.14526367 C-64.74975586 17.48526367 -64.74975586 16.82526367 -64.74975586 16.14526367 C-58.19398246 13.2763498 -51.58433361 10.64152177 -44.81225586 8.33276367 C-43.58635742 7.91381836 -42.36045898 7.49487305 -41.09741211 7.06323242 C-38.10374526 6.24233194 -35.82302551 5.94115658 -32.74975586 6.14526367 C-32.74975586 5.48526367 -32.74975586 4.82526367 -32.74975586 4.14526367 C-32.03843506 4.05962158 -31.32711426 3.97397949 -30.59423828 3.88574219 C-27.37484523 3.4963016 -24.15605405 3.10208938 -20.93725586 2.70776367 C-19.81770508 2.57305664 -18.6981543 2.43834961 -17.54467773 2.29956055 C-16.4715332 2.16743164 -15.39838867 2.03530273 -14.29272461 1.89916992 C-13.30296631 1.77872314 -12.31320801 1.65827637 -11.29345703 1.53417969 C-1.29007264 0.00472472 -1.29007264 0.00472472 0 0 Z M3.25024414 26.14526367 C1.62801625 26.34893215 -0.0018306 26.49264024 -1.63256836 26.61010742 C-2.63545898 26.6880957 -3.63834961 26.76608398 -4.67163086 26.84643555 C-6.78345138 27.0022467 -8.89542926 27.15594163 -11.00756836 27.30737305 C-16.51560184 27.73944455 -21.46926237 28.41555938 -26.74975586 30.14526367 C-28.89304743 30.69690188 -31.03877894 31.23917949 -33.18725586 31.77026367 C-34.2378418 32.0306543 -35.28842773 32.29104492 -36.37084961 32.55932617 C-37.15588867 32.75268555 -37.94092773 32.94604492 -38.74975586 33.14526367 C-38.74975586 33.80526367 -38.74975586 34.46526367 -38.74975586 35.14526367 C-40.06975586 35.47526367 -41.38975586 35.80526367 -42.74975586 36.14526367 C-36.45079764 36.02731018 -30.15200204 35.90248733 -23.85327148 35.77294922 C-21.7117011 35.72970971 -19.57009868 35.68802711 -17.4284668 35.64794922 C-14.3453609 35.58997996 -11.26241462 35.52636288 -8.17944336 35.46166992 C-7.226091 35.44495743 -6.27273865 35.42824493 -5.29049683 35.411026 C-0.66026533 35.30846856 3.68074832 34.9380809 8.25024414 34.14526367 C10.74249116 34.05495869 13.23683129 34.01463155 15.73071289 34.01245117 C16.42538162 34.01149445 17.12005035 34.01053772 17.83576965 34.009552 C19.29383434 34.00887543 20.75190214 34.01069301 22.20996094 34.01489258 C24.44155596 34.02027286 26.67295197 34.01491739 28.90454102 34.00854492 C30.32576542 34.00920532 31.74698969 34.01048568 33.16821289 34.01245117 C34.45493896 34.0135791 35.74166504 34.01470703 37.06738281 34.01586914 C40.25024414 34.14526367 40.25024414 34.14526367 43.25024414 35.14526367 C44.97093848 35.29481968 46.69628603 35.39343443 48.42211914 35.46166992 C49.46899902 35.50364502 50.51587891 35.54562012 51.59448242 35.58886719 C52.71838379 35.62810303 53.84228516 35.66733887 55.00024414 35.70776367 C56.1486377 35.75022217 57.29703125 35.79268066 58.48022461 35.83642578 C69.73778761 36.22022389 80.98772587 36.25047547 92.25024414 36.14526367 C90.27024414 35.65026367 90.27024414 35.65026367 88.25024414 35.14526367 C88.25024414 34.48526367 88.25024414 33.82526367 88.25024414 33.14526367 C87.46520508 32.9519043 86.68016602 32.75854492 85.87133789 32.55932617 C84.29545898 32.16874023 84.29545898 32.16874023 82.68774414 31.77026367 C81.65520508 31.5150293 80.62266602 31.25979492 79.55883789 30.99682617 C77.37273867 30.43417017 75.20239972 29.80580307 73.05493164 29.11010742 C68.03972156 27.8382831 63.0864598 27.47153734 57.93774414 27.08276367 C55.96219755 26.9288415 53.98691615 26.77146417 52.01196289 26.61010742 C51.14531006 26.54428467 50.27865723 26.47846191 49.38574219 26.41064453 C47.25024414 26.14526367 47.25024414 26.14526367 45.25024414 25.14526367 C42.19956845 25.04595416 39.17218377 25.00546016 36.12133789 25.01245117 C35.21650162 25.01149445 34.31166534 25.01053772 33.37940979 25.009552 C31.4653415 25.00887095 29.5512709 25.01072006 27.63720703 25.01489258 C24.6963181 25.02024806 21.75558147 25.01494189 18.81469727 25.00854492 C16.95857713 25.00920559 15.1024571 25.01048653 13.24633789 25.01245117 C12.36094833 25.01042694 11.47555878 25.00840271 10.56333923 25.00631714 C6.58989121 24.62166991 6.58989121 24.62166991 3.25024414 26.14526367 Z M-63.74975586 45.14526367 C-63.74975586 45.80526367 -63.74975586 46.46526367 -63.74975586 47.14526367 C-64.34788086 47.28963867 -64.94600586 47.43401367 -65.56225586 47.58276367 C-69.37981278 48.56442117 -71.14042494 49.32627683 -73.56225586 52.39526367 C-76.33072489 55.75844086 -79.39983249 58.35366086 -82.74975586 61.14526367 C-86.01378555 64.57249484 -88.74894093 67.8321862 -90.74975586 72.14526367 C-87.38958693 71.02520736 -86.05910673 69.7731457 -83.74975586 67.14526367 C-83.74975586 66.48526367 -83.74975586 65.82526367 -83.74975586 65.14526367 C-83.00854492 64.88100586 -82.26733398 64.61674805 -81.50366211 64.34448242 C-78.76544918 63.1520975 -76.95959 61.87107777 -74.68725586 59.95776367 C-67.74434772 54.40808124 -60.28697616 49.7380491 -51.74975586 47.14526367 C-52.24475586 46.15526367 -52.24475586 46.15526367 -52.74975586 45.14526367 C-56.37975586 45.14526367 -60.00975586 45.14526367 -63.74975586 45.14526367 Z M103.25024414 47.14526367 C105.67664375 48.76286341 108.07307116 50.18473035 110.62524414 51.58276367 C113.18864553 52.9915924 115.69726529 54.42108523 118.18774414 55.95776367 C120.14246344 57.31158515 120.14246344 57.31158515 122.25024414 57.14526367 C122.25024414 57.80526367 122.25024414 58.46526367 122.25024414 59.14526367 C123.63848694 60.09333193 125.03304894 61.03341205 126.45727539 61.92651367 C129.08703745 63.71406435 131.38588383 65.83625114 133.73461914 67.97338867 C135.19464077 69.34915687 135.19464077 69.34915687 137.25024414 69.14526367 C137.74524414 70.63026367 137.74524414 70.63026367 138.25024414 72.14526367 C138.91024414 71.81526367 139.57024414 71.48526367 140.25024414 71.14526367 C137.8167365 67.12061642 135.57750863 64.4317586 131.82836914 61.49682617 C129.4839688 59.48899816 127.59892362 57.15019222 125.62524414 54.78588867 C122.84474668 51.46824965 120.34146012 48.72896018 116.25024414 47.14526367 C115.26024414 47.14526367 114.27024414 47.14526367 113.25024414 47.14526367 C113.25024414 46.48526367 113.25024414 45.82526367 113.25024414 45.14526367 C109.34591545 45.14526367 106.86997816 45.82899676 103.25024414 47.14526367 Z M141.25024414 73.14526367 C142.25024414 75.14526367 142.25024414 75.14526367 142.25024414 75.14526367 Z M-104.74975586 107.14526367 C-107.11277113 110.54800566 -107.74975586 111.87538744 -107.74975586 116.14526367 C-107.08975586 116.14526367 -106.42975586 116.14526367 -105.74975586 116.14526367 C-105.08975586 113.17526367 -104.42975586 110.20526367 -103.74975586 107.14526367 C-104.07975586 107.14526367 -104.40975586 107.14526367 -104.74975586 107.14526367 Z M153.25024414 108.14526367 C153.74856138 111.83281124 154.35092057 113.75017029 157.25024414 116.14526367 C156.92024414 113.50526367 156.59024414 110.86526367 156.25024414 108.14526367 C155.26024414 108.14526367 154.27024414 108.14526367 153.25024414 108.14526367 Z M-110.74975586 146.14526367 C-111.07975586 148.12526367 -111.40975586 150.10526367 -111.74975586 152.14526367 C-111.08975586 151.81526367 -110.42975586 151.48526367 -109.74975586 151.14526367 C-109.74975586 149.49526367 -109.74975586 147.84526367 -109.74975586 146.14526367 C-110.07975586 146.14526367 -110.40975586 146.14526367 -110.74975586 146.14526367 Z M160.25024414 149.14526367 C161.25024414 152.14526367 161.25024414 152.14526367 161.25024414 152.14526367 Z " fill="#000101" transform="translate(171.749755859375,-0.145263671875)"/>
<path d="M0 0 C0.99 0.495 0.99 0.495 2 1 C1.5875 1.46148437 1.175 1.92296875 0.75 2.3984375 C-1.18478049 4.58370296 -3.09377585 6.78978138 -5 9 C-5.71800781 9.81726563 -6.43601562 10.63453125 -7.17578125 11.4765625 C-11.49490043 16.57738698 -14.0145865 20.34845884 -15 27 C-12.0703125 26.21875 -12.0703125 26.21875 -9.140625 25.4375 C-7 25 -7 25 -3 25 C-3 24.34 -3 23.68 -3 23 C35.65972471 12.51670916 78.68712124 10.22904041 117 23 C117 32.9 117 42.8 117 53 C116.34 53 115.68 53 115 53 C115 60.59 115 68.18 115 76 C119.455 75.505 119.455 75.505 124 75 C124.33 74.01 124.66 73.02 125 72 C125.02932572 75.18748029 125.04690739 78.37492528 125.0625 81.5625 C125.07087891 82.45775391 125.07925781 83.35300781 125.08789062 84.27539062 C125.1063137 89.30488912 124.74627339 94.01736261 124 99 C123.86231269 101.42387589 123.78493893 103.84615867 123.70874023 106.27270508 C123.38913825 116.44312981 122.23124224 126.07869016 120 136 C119.01 136.33 118.02 136.66 117 137 C115.8518401 138.97975984 115.8518401 138.97975984 115 141.4375 C114.66484375 142.33082031 114.3296875 143.22414063 113.984375 144.14453125 C112.52020284 148.39179254 111.21461489 152.67523486 110 157 C109.34 157 108.68 157 108 157 C107.94555999 160.00024947 107.9061164 162.99949039 107.875 166 C107.84986328 167.25876953 107.84986328 167.25876953 107.82421875 168.54296875 C107.79289979 172.58311484 107.92278437 175.74605847 109.109375 179.6484375 C110.75859225 185.50807848 109.4687334 191.57975898 108.66162109 197.50634766 C108.37874455 199.59732094 108.12315085 201.69027076 107.87109375 203.78515625 C106.37370216 215.66171228 103.67081484 227.02859046 98.625 237.9375 C98.01055734 239.2814285 97.39863696 240.62651265 96.7890625 241.97265625 C96.48774414 242.63797363 96.18642578 243.30329102 95.87597656 243.98876953 C94.73369815 246.61142549 93.73118557 249.27737366 92.72460938 251.9543457 C90.31103733 258.35177539 87.5482832 263.66582139 83.3203125 269.046875 C81.71997907 271.02131138 81.71997907 271.02131138 82 274 C78.97389803 278.12650269 75.60944991 281.2534662 71.68359375 284.50390625 C69.76415659 286.13371097 69.76415659 286.13371097 67.5625 288.9375 C63.38674818 293.92803266 58.36648048 298.30705813 53 302 C52.34 302 51.68 302 51 302 C50.34 303.32 49.68 304.64 49 306 C48.34 306 47.68 306 47 306 C46.34 307.32 45.68 308.64 45 310 C44.01 310 43.02 310 42 310 C41.67 310.99 41.34 311.98 41 313 C38.9375 313.6875 38.9375 313.6875 37 314 C37 314.66 37 315.32 37 316 C34.35261084 317.4606285 33.10551666 318 30 318 C30 318.66 30 319.32 30 320 C22.81947541 323.48901845 16.9587799 324.54470737 9 324 C9 323.34 9 322.68 9 322 C7.6696875 322.061875 7.6696875 322.061875 6.3125 322.125 C3.02722987 322.00102754 0.94550705 321.38612096 -2 320 C-2 319.34 -2 318.68 -2 318 C-2.57878906 317.88011719 -3.15757812 317.76023437 -3.75390625 317.63671875 C-10.43904503 315.74162724 -14.7768542 311.3060037 -19 306 C-20.14596499 304.97634217 -21.31393278 303.97691128 -22.5 303 C-25.76428178 300.29852543 -28.28518379 297.25777945 -31 294 C-32.19142812 292.95948611 -33.40062093 291.93903184 -34.625 290.9375 C-37.49662893 288.56312283 -39.21514976 286.30197295 -41 283 C-41.8353125 282.1646875 -41.8353125 282.1646875 -42.6875 281.3125 C-43.120625 280.879375 -43.55375 280.44625 -44 280 C-44 279.34 -44 278.68 -44 278 C-44.66 278 -45.32 278 -46 278 C-46.185625 277.154375 -46.37125 276.30875 -46.5625 275.4375 C-47.95369275 272.11073474 -48.72016271 271.13833083 -51.2734375 268.828125 C-55.13994987 265.06685087 -57.57258862 261.0631025 -60.0625 256.3125 C-60.48877686 255.52012939 -60.91505371 254.72775879 -61.35424805 253.91137695 C-62.58345204 251.6146388 -63.79396334 249.30896656 -65 247 C-65.59296875 245.88367188 -66.1859375 244.76734375 -66.796875 243.6171875 C-76.35731826 225.13694923 -79.62134106 207.09939757 -80.75390625 186.59765625 C-80.7147227 184.07285585 -80.7147227 184.07285585 -82 183 C-82.18287028 180.36720295 -82.30640662 177.75363224 -82.39453125 175.1171875 C-82.46347503 173.45700129 -82.53316279 171.79684585 -82.60351562 170.13671875 C-82.70957614 167.52864938 -82.81096111 164.9207657 -82.89868164 162.31201172 C-83.34079484 149.52644274 -84.73594405 138.09097004 -89.5612793 126.12792969 C-91.18283372 121.85467566 -91.72308465 117.72700202 -92.1328125 113.1953125 C-92.21498016 112.39012177 -92.29714783 111.58493103 -92.38180542 110.75534058 C-92.63970112 108.21278473 -92.883139 105.6691267 -93.125 103.125 C-93.37642733 100.5597682 -93.63092875 97.99489909 -93.88961792 95.4303894 C-94.04911058 93.84160713 -94.20399646 92.2523542 -94.35379028 90.66262817 C-94.68553422 86.70414523 -94.68553422 86.70414523 -96 83 C-96.04022391 80.6670134 -96.04320247 78.33293334 -96 76 C-95.34 76 -94.68 76 -94 76 C-93.87625 75.38125 -93.7525 74.7625 -93.625 74.125 C-93 72 -93 72 -91 70 C-87.375 69.875 -87.375 69.875 -84 70 C-84.0721875 68.73027344 -84.144375 67.46054688 -84.21875 66.15234375 C-84.78735907 55.75318319 -85.14202562 45.41521234 -85 35 C-83.71222656 34.79503906 -82.42445312 34.59007812 -81.09765625 34.37890625 C-79.41923637 34.10698348 -77.7408528 33.83483649 -76.0625 33.5625 C-75.21236328 33.42779297 -74.36222656 33.29308594 -73.48632812 33.15429688 C-72.67744141 33.02216797 -71.86855469 32.89003906 -71.03515625 32.75390625 C-69.91185913 32.57323608 -69.91185913 32.57323608 -68.76586914 32.38891602 C-66.9829115 32.16240096 -66.9829115 32.16240096 -66 31 C-64.16039041 30.80524271 -62.32002453 30.61587209 -60.47705078 30.45605469 C-48.30521045 29.36061502 -38.93945745 25.3340915 -28.375 19.234375 C-26.2161719 18.1123525 -24.37572988 17.46194748 -22 17 C-22 16.34 -22 15.68 -22 15 C-20.25104067 13.88811864 -18.4473878 12.86193546 -16.625 11.875 C-10.56725374 8.45762533 -5.28585731 4.50233421 0 0 Z " fill="#009991" transform="translate(181,145)"/>
<path d="M0 0 C3.8175407 1.0955098 5.13781044 2.55716422 7.7421875 5.51953125 C20.11527723 18.42578532 39.84103353 25.61803003 57.64819336 26.04907227 C62.86761073 26.11450699 68.08533445 26.06964914 73.3046875 26.01953125 C75.13345864 26.00948038 76.96223512 26.00035826 78.79101562 25.9921875 C83.23320706 25.97034314 87.67513703 25.93592967 92.1171875 25.89453125 C92.32540907 46.32075145 88.36122312 65.32420049 79.90625 83.8671875 C78.41895452 87.15116773 77.11024395 90.47546381 75.84179688 93.84887695 C73.42822483 100.24630664 70.6654707 105.56035264 66.4375 110.94140625 C64.83716657 112.91584263 64.83716657 112.91584263 65.1171875 115.89453125 C62.09108553 120.02103394 58.72663741 123.14799745 54.80078125 126.3984375 C52.88134409 128.02824222 52.88134409 128.02824222 50.6796875 130.83203125 C46.50393568 135.82256391 41.48366798 140.20158938 36.1171875 143.89453125 C35.4571875 143.89453125 34.7971875 143.89453125 34.1171875 143.89453125 C33.4571875 145.21453125 32.7971875 146.53453125 32.1171875 147.89453125 C31.4571875 147.89453125 30.7971875 147.89453125 30.1171875 147.89453125 C29.4571875 149.21453125 28.7971875 150.53453125 28.1171875 151.89453125 C27.1271875 151.89453125 26.1371875 151.89453125 25.1171875 151.89453125 C24.7871875 152.88453125 24.4571875 153.87453125 24.1171875 154.89453125 C22.0546875 155.58203125 22.0546875 155.58203125 20.1171875 155.89453125 C20.1171875 156.55453125 20.1171875 157.21453125 20.1171875 157.89453125 C17.46979834 159.35515975 16.22270416 159.89453125 13.1171875 159.89453125 C13.1171875 160.55453125 13.1171875 161.21453125 13.1171875 161.89453125 C5.93666291 165.3835497 0.0759674 166.43923862 -7.8828125 165.89453125 C-7.8828125 165.23453125 -7.8828125 164.57453125 -7.8828125 163.89453125 C-8.7696875 163.93578125 -9.6565625 163.97703125 -10.5703125 164.01953125 C-13.85558263 163.89555879 -15.93730545 163.28065221 -18.8828125 161.89453125 C-18.8828125 161.23453125 -18.8828125 160.57453125 -18.8828125 159.89453125 C-19.46160156 159.77464844 -20.04039062 159.65476562 -20.63671875 159.53125 C-27.32185753 157.63615849 -31.6596667 153.20053495 -35.8828125 147.89453125 C-37.02877749 146.87087342 -38.19674528 145.87144253 -39.3828125 144.89453125 C-42.64709428 142.19305668 -45.16799629 139.1523107 -47.8828125 135.89453125 C-49.07424062 134.85401736 -50.28343343 133.83356309 -51.5078125 132.83203125 C-54.37944143 130.45765408 -56.09796226 128.1965042 -57.8828125 124.89453125 C-58.4396875 124.33765625 -58.9965625 123.78078125 -59.5703125 123.20703125 C-60.0034375 122.77390625 -60.4365625 122.34078125 -60.8828125 121.89453125 C-60.8828125 121.23453125 -60.8828125 120.57453125 -60.8828125 119.89453125 C-61.5428125 119.89453125 -62.2028125 119.89453125 -62.8828125 119.89453125 C-63.0684375 119.04890625 -63.2540625 118.20328125 -63.4453125 117.33203125 C-64.83650525 114.00526599 -65.60297521 113.03286208 -68.15625 110.72265625 C-72.02276237 106.96138212 -74.45540112 102.95763375 -76.9453125 98.20703125 C-77.37158936 97.41466064 -77.79786621 96.62229004 -78.23706055 95.8059082 C-79.46626454 93.50917005 -80.67677584 91.20349781 -81.8828125 88.89453125 C-82.47578125 87.77820313 -83.06875 86.661875 -83.6796875 85.51171875 C-92.11597931 69.20445365 -96.11057833 54.10026181 -95.9453125 35.83203125 C-95.93854492 34.39053711 -95.93854492 34.39053711 -95.93164062 32.91992188 C-95.91998956 30.57805703 -95.90363275 28.23632944 -95.8828125 25.89453125 C-94.27563354 25.93380737 -94.27563354 25.93380737 -92.63598633 25.97387695 C-63.83297561 26.94726063 -63.83297561 26.94726063 -35.8828125 20.89453125 C-34.119375 20.28351563 -34.119375 20.28351563 -32.3203125 19.66015625 C-26.53573499 17.43309391 -21.27394871 14.53326563 -16.0390625 11.2265625 C-13.8828125 9.89453125 -13.8828125 9.89453125 -11.66015625 8.8359375 C-9.72397375 8.0308177 -9.72397375 8.0308177 -8.9453125 6.01953125 C-6.97014016 2.06918657 -4.49268192 -0.16436641 0 0 Z " fill="#D1D1D1" transform="translate(197.8828125,303.10546875)"/>
<path d="M0 0 C1.18230698 -0.00637985 2.36461395 -0.0127597 3.58274841 -0.01933289 C5.50450645 -0.02100212 5.50450645 -0.02100212 7.46508789 -0.02270508 C8.79968806 -0.02592158 10.13428788 -0.02928595 11.46888733 -0.03279114 C14.27239801 -0.03878289 17.07587789 -0.04063133 19.87939453 -0.04003906 C23.43963555 -0.03993821 26.99967365 -0.05350953 30.55986691 -0.07081127 C33.32173024 -0.08204312 36.08354656 -0.08395477 38.84543037 -0.08342934 C40.78604238 -0.08515696 42.7266397 -0.09593852 44.66722107 -0.10697937 C52.40796797 -0.08730821 59.65706414 0.68449396 67.25024414 2.14526367 C69.99650656 2.55827977 72.74579537 2.9132055 75.50024414 3.27026367 C76.78415039 3.4378418 78.06805664 3.60541992 79.39086914 3.77807617 C80.33446289 3.89924805 81.27805664 4.02041992 82.25024414 4.14526367 C82.25024414 4.80526367 82.25024414 5.46526367 82.25024414 6.14526367 C83.26086914 6.20713867 84.27149414 6.26901367 85.31274414 6.33276367 C95.28953131 7.575424 105.24039442 11.87744012 114.25024414 16.14526367 C114.25024414 16.80526367 114.25024414 17.46526367 114.25024414 18.14526367 C115.3446582 18.31541992 115.3446582 18.31541992 116.46118164 18.48901367 C130.90722007 21.88808154 145.75902748 37.61732488 154.25024414 49.14526367 C154.25024414 49.80526367 154.25024414 50.46526367 154.25024414 51.14526367 C155.24024414 51.47526367 156.23024414 51.80526367 157.25024414 52.14526367 C158.30613483 53.77709474 159.29385674 55.45319366 160.25024414 57.14526367 C161.39493164 58.63026367 161.39493164 58.63026367 162.56274414 60.14526367 C166.54235555 65.62936232 171.25024414 73.28087601 171.25024414 80.14526367 C171.91024414 80.14526367 172.57024414 80.14526367 173.25024414 80.14526367 C173.5402832 81.14106445 173.5402832 81.14106445 173.83618164 82.15698242 C175.37326447 87.47166459 175.37326447 87.47166459 177.31274414 92.64526367 C178.58273491 96.03190573 179.14921468 99.48166108 179.78540039 103.03588867 C180.04641199 105.1208862 180.04641199 105.1208862 181.25024414 106.14526367 C181.86199607 110.10025096 182.24813224 114.0814183 182.66235352 118.06152344 C182.87119849 120.04435315 183.09572518 122.0255111 183.32055664 124.0065918 C185.23111226 142.12931413 185.23111226 142.12931413 182.06958008 146.94287109 C180.57526735 148.55245513 179.0314956 149.90484439 177.31274414 151.27026367 C176.76166992 151.74979492 176.2105957 152.22932617 175.64282227 152.72338867 C171.61967494 156.14526367 171.61967494 156.14526367 169.25024414 156.14526367 C168.92024414 157.13526367 168.59024414 158.12526367 168.25024414 159.14526367 C165.66951512 161.46791979 164.79848346 162.14526367 161.25024414 162.14526367 C161.17507568 160.51899048 161.17507568 160.51899048 161.09838867 158.85986328 C160.90915052 154.81337285 160.7089827 150.76748258 160.50561523 146.72167969 C160.41932741 144.97507835 160.33595064 143.22833055 160.25561523 141.48144531 C160.13920526 138.9613849 160.01211759 136.44204787 159.88305664 133.92260742 C159.83291916 132.76280617 159.83291916 132.76280617 159.7817688 131.57957458 C159.5260915 126.83502104 158.65716075 122.71333059 157.25024414 118.14526367 C157.11197466 115.87711244 157.03084557 113.60491948 157.00024414 111.33276367 C156.29309113 98.85213331 152.55731246 86.63905604 144.25024414 77.14526367 C144.25024414 76.48526367 144.25024414 75.82526367 144.25024414 75.14526367 C143.59024414 75.14526367 142.93024414 75.14526367 142.25024414 75.14526367 C140.74243164 73.46557617 140.74243164 73.46557617 139.12524414 71.27026367 C138.58641602 70.5509668 138.04758789 69.83166992 137.49243164 69.09057617 C136.25024414 67.14526367 136.25024414 67.14526367 136.25024414 65.14526367 C134.93024414 64.48526367 133.61024414 63.82526367 132.25024414 63.14526367 C132.25024414 62.48526367 132.25024414 61.82526367 132.25024414 61.14526367 C131.26024414 60.81526367 130.27024414 60.48526367 129.25024414 60.14526367 C126.56274414 57.70776367 126.56274414 57.70776367 124.25024414 55.14526367 C124.25024414 54.48526367 124.25024414 53.82526367 124.25024414 53.14526367 C122.93024414 52.48526367 121.61024414 51.82526367 120.25024414 51.14526367 C120.25024414 50.48526367 120.25024414 49.82526367 120.25024414 49.14526367 C119.65211914 49.00088867 119.05399414 48.85651367 118.43774414 48.70776367 C116.6887401 48.25801977 114.96347391 47.71634026 113.25024414 47.14526367 C112.95891602 46.51749023 112.66758789 45.8897168 112.36743164 45.24291992 C110.09024543 40.96722413 104.58936958 39.74641697 100.25024414 38.14526367 C96.27913086 36.99368652 92.29235803 36.01294257 88.25024414 35.14526367 C88.25024414 34.48526367 88.25024414 33.82526367 88.25024414 33.14526367 C87.03336914 33.02151367 85.81649414 32.89776367 84.56274414 32.77026367 C82.09028509 32.51882716 80.1940446 32.12217178 77.88305664 31.17260742 C69.32245214 27.8321935 59.09868005 27.89030107 50.01586914 27.39135742 C47.25024414 27.14526367 47.25024414 27.14526367 45.25024414 26.14526367 C42.19956845 26.04595416 39.17218377 26.00546016 36.12133789 26.01245117 C35.21650162 26.01149445 34.31166534 26.01053772 33.37940979 26.009552 C31.4653415 26.00887095 29.5512709 26.01072006 27.63720703 26.01489258 C24.6963181 26.02024806 21.75558147 26.01494189 18.81469727 26.00854492 C16.95857713 26.00920559 15.1024571 26.01048653 13.24633789 26.01245117 C12.36094833 26.01042694 11.47555878 26.00840271 10.56333923 26.00631714 C6.58989121 25.62166991 6.58989121 25.62166991 3.25024414 27.14526367 C1.62801625 27.34893215 -0.0018306 27.49264024 -1.63256836 27.61010742 C-2.63545898 27.6880957 -3.63834961 27.76608398 -4.67163086 27.84643555 C-6.78345138 28.0022467 -8.89542926 28.15594163 -11.00756836 28.30737305 C-16.53681928 28.74110893 -21.48596926 29.39520784 -26.74975586 31.14526367 C-30.82434611 32.26976728 -34.47809863 33.14526367 -38.74975586 33.14526367 C-38.74975586 33.80526367 -38.74975586 34.46526367 -38.74975586 35.14526367 C-39.29913818 35.27054443 -39.84852051 35.3958252 -40.41455078 35.52490234 C-42.92685636 36.10894386 -45.43167742 36.72053262 -47.93725586 37.33276367 C-48.80157227 37.5293457 -49.66588867 37.72592773 -50.55639648 37.9284668 C-55.94864829 39.27136476 -59.16560664 40.64173349 -62.74975586 45.14526367 C-63.24475586 46.13526367 -63.24475586 46.13526367 -63.74975586 47.14526367 C-66.37556724 48.7207505 -67.62075373 49.14526367 -70.74975586 49.14526367 C-71.40975586 50.46526367 -72.06975586 51.78526367 -72.74975586 53.14526367 C-73.40975586 53.14526367 -74.06975586 53.14526367 -74.74975586 53.14526367 C-74.99725586 53.72276367 -75.24475586 54.30026367 -75.49975586 54.89526367 C-76.93275574 57.47466346 -78.53400262 59.20647959 -80.74975586 61.14526367 C-81.40975586 61.14526367 -82.06975586 61.14526367 -82.74975586 61.14526367 C-83.40975586 62.46526367 -84.06975586 63.78526367 -84.74975586 65.14526367 C-85.40975586 65.14526367 -86.06975586 65.14526367 -86.74975586 65.14526367 C-86.99725586 65.86713867 -87.24475586 66.58901367 -87.49975586 67.33276367 C-88.87245178 70.42132949 -90.47328882 72.65537785 -92.74975586 75.14526367 C-93.40975586 75.14526367 -94.06975586 75.14526367 -94.74975586 75.14526367 C-95.01788086 75.86713867 -95.28600586 76.58901367 -95.56225586 77.33276367 C-96.74876948 80.1429275 -98.02461225 82.62942924 -99.74975586 85.14526367 C-100.40975586 85.14526367 -101.06975586 85.14526367 -101.74975586 85.14526367 C-101.85288086 85.94963867 -101.95600586 86.75401367 -102.06225586 87.58276367 C-102.74290184 91.10974737 -103.80492466 94.18336711 -105.12866211 97.50854492 C-105.70702243 99.96384818 -105.77806318 101.76938233 -105.71850586 104.26635742 C-105.63032827 109.64075355 -106.60571073 114.64845996 -107.68725586 119.89526367 C-107.8696582 120.81436523 -108.05206055 121.7334668 -108.23999023 122.68041992 C-108.89548631 125.97458567 -109.55161868 129.26696876 -110.29077148 132.54345703 C-110.82314767 135.56129373 -110.96455281 138.47700045 -111.06616211 141.53979492 C-111.10805664 142.7418457 -111.14995117 143.94389648 -111.19311523 145.18237305 C-111.23243164 146.42825195 -111.27174805 147.67413086 -111.31225586 148.95776367 C-111.35543945 150.22297852 -111.39862305 151.48819336 -111.44311523 152.79174805 C-111.54900056 155.90948256 -111.65107991 159.02729402 -111.74975586 162.14526367 C-115.74975586 162.14526367 -115.74975586 162.14526367 -117.27319336 160.83666992 C-118.0040918 159.99942383 -118.0040918 159.99942383 -118.74975586 159.14526367 C-120.55924297 157.5925815 -122.39084097 156.06942728 -124.22631836 154.54760742 C-125.74975586 153.14526367 -125.74975586 153.14526367 -126.74975586 151.14526367 C-128.40508208 150.12660138 -130.07235724 149.12715555 -131.74975586 148.14526367 C-134.18024027 145.71477926 -134.00595472 145.09903755 -134.01538086 141.77026367 C-134.01940918 140.8756543 -134.0234375 139.98104492 -134.02758789 139.05932617 C-134.01840332 138.09768555 -134.00921875 137.13604492 -133.99975586 136.14526367 C-133.99443848 135.16299805 -133.98912109 134.18073242 -133.98364258 133.16870117 C-133.90228863 126.79219898 -133.56810242 120.48443223 -132.87475586 114.14526367 C-132.75729004 113.06245117 -132.75729004 113.06245117 -132.63745117 111.95776367 C-132.12375216 107.80093488 -131.15255619 104.08197606 -129.74975586 100.14526367 C-129.41275083 98.69239755 -129.09794594 97.23408522 -128.81225586 95.77026367 C-127.87153251 91.35035714 -126.41473034 87.34389497 -124.74975586 83.14526367 C-124.41975586 82.15526367 -124.08975586 81.16526367 -123.74975586 80.14526367 C-123.08975586 80.14526367 -122.42975586 80.14526367 -121.74975586 80.14526367 C-121.60538086 79.38213867 -121.46100586 78.61901367 -121.31225586 77.83276367 C-120.74975586 75.14526367 -120.74975586 75.14526367 -119.74975586 72.14526367 C-119.08975586 72.14526367 -118.42975586 72.14526367 -117.74975586 72.14526367 C-117.60538086 71.38213867 -117.46100586 70.61901367 -117.31225586 69.83276367 C-116.74975586 67.14526367 -116.74975586 67.14526367 -115.74975586 64.14526367 C-115.08975586 64.14526367 -114.42975586 64.14526367 -113.74975586 64.14526367 C-113.08975586 62.16526367 -112.42975586 60.18526367 -111.74975586 58.14526367 C-111.08975586 58.14526367 -110.42975586 58.14526367 -109.74975586 58.14526367 C-109.52288086 57.25838867 -109.29600586 56.37151367 -109.06225586 55.45776367 C-107.55967903 51.66554596 -105.71668548 49.89510088 -102.74975586 47.14526367 C-102.19288086 46.38213867 -101.63600586 45.61901367 -101.06225586 44.83276367 C-100.62913086 44.27588867 -100.19600586 43.71901367 -99.74975586 43.14526367 C-99.08975586 43.14526367 -98.42975586 43.14526367 -97.74975586 43.14526367 C-97.08975586 41.82526367 -96.42975586 40.50526367 -95.74975586 39.14526367 C-95.08975586 39.14526367 -94.42975586 39.14526367 -93.74975586 39.14526367 C-93.08975586 37.82526367 -92.42975586 36.50526367 -91.74975586 35.14526367 C-91.08975586 35.14526367 -90.42975586 35.14526367 -89.74975586 35.14526367 C-89.54737305 34.57807617 -89.34499023 34.01088867 -89.13647461 33.42651367 C-87.23289711 30.29499464 -84.56112788 28.6233771 -81.56225586 26.64526367 C-80.97653809 26.25089111 -80.39082031 25.85651855 -79.78735352 25.45019531 C-68.85346165 18.14526367 -68.85346165 18.14526367 -64.74975586 18.14526367 C-64.74975586 17.48526367 -64.74975586 16.82526367 -64.74975586 16.14526367 C-58.19398246 13.2763498 -51.58433361 10.64152177 -44.81225586 8.33276367 C-43.58635742 7.91381836 -42.36045898 7.49487305 -41.09741211 7.06323242 C-38.10374526 6.24233194 -35.82302551 5.94115658 -32.74975586 6.14526367 C-32.74975586 5.48526367 -32.74975586 4.82526367 -32.74975586 4.14526367 C-32.03843506 4.05962158 -31.32711426 3.97397949 -30.59423828 3.88574219 C-27.37484523 3.4963016 -24.15605405 3.10208938 -20.93725586 2.70776367 C-19.81770508 2.57305664 -18.6981543 2.43834961 -17.54467773 2.29956055 C-16.4715332 2.16743164 -15.39838867 2.03530273 -14.29272461 1.89916992 C-13.30296631 1.77872314 -12.31320801 1.65827637 -11.29345703 1.53417969 C-1.29007264 0.00472472 -1.29007264 0.00472472 0 0 Z " fill="#034C55" transform="translate(171.749755859375,-0.145263671875)"/>
<path d="M0 0 C3.88292257 1.52553666 7.58790191 3.24223613 11.3125 5.125 C12.91544922 5.93324219 12.91544922 5.93324219 14.55078125 6.7578125 C15.76314453 7.37269531 15.76314453 7.37269531 17 8 C17 8.66 17 9.32 17 10 C17.72654785 10.12334717 18.4530957 10.24669434 19.20166016 10.3737793 C24.12389463 11.47529137 27.78841332 12.99012377 31 17 C32.19105127 22.58472453 31.89160386 28.01198715 31.625 33.6875 C31.58275597 35.2916517 31.54436045 36.89590925 31.50976562 38.50024414 C31.39924165 43.00340757 31.21333282 47.5006678 31 52 C30.95456055 53.00482422 30.90912109 54.00964844 30.86230469 55.04492188 C30.71859621 58.03826422 30.56394134 61.02910674 30.35351562 64.01855469 C30.0371868 68.76132044 29.99127899 73.46490374 30.0390625 78.21875 C30.05130859 79.49242432 30.06355469 80.76609863 30.07617188 82.07836914 C30.10815822 84.6064096 30.15324368 87.13432613 30.21289062 89.66186523 C30.22771484 90.81372314 30.24253906 91.96558105 30.2578125 93.15234375 C30.2798877 94.18351318 30.30196289 95.21468262 30.32470703 96.27709961 C29.94953964 99.42314619 29.25498956 100.79474801 27 103 C26.01 103 25.02 103 24 103 C24 103.66 24 104.32 24 105 C21.09399739 106.25664978 19.20395416 107 16 107 C16 107.66 16 108.32 16 109 C15.34 109 14.68 109 14 109 C13.91959473 109.589021 13.83918945 110.17804199 13.75634766 110.78491211 C13.38307525 113.50298485 13.00406921 116.22022988 12.625 118.9375 C12.43550781 120.32678711 12.43550781 120.32678711 12.2421875 121.74414062 C11.63988857 126.03552049 10.98189992 130.25391388 9.96875 134.46875 C8.73257254 139.78265379 8.31332919 145.13368517 7.875 150.5625 C7.78863281 151.57119141 7.70226562 152.57988281 7.61328125 153.61914062 C7.40343341 156.07902365 7.19911533 158.53922902 7 161 C5.68 161.33 4.36 161.66 3 162 C2.67 161.01 2.34 160.02 2 159 C1.01 159 0.02 159 -1 159 C-1.09087891 160.06541016 -1.09087891 160.06541016 -1.18359375 161.15234375 C-1.26738281 162.07144531 -1.35117187 162.99054688 -1.4375 163.9375 C-1.51871094 164.85402344 -1.59992188 165.77054688 -1.68359375 166.71484375 C-2 169 -2 169 -3 170 C-3.52413119 173.30315773 -4.04610934 176.60236196 -4.45507812 179.921875 C-5.09141142 183.9237861 -5.78387159 186.23736427 -8.96875 188.8671875 C-9.9690625 189.57101562 -10.969375 190.27484375 -12 191 C-13.1446875 192.175625 -13.1446875 192.175625 -14.3125 193.375 C-21.21906855 200.12095067 -30.83295764 208.94431921 -40 212 C-40.99 212.99 -40.99 212.99 -42 214 C-42.66 213.34 -43.32 212.68 -44 212 C-43.5153125 211.36578125 -43.030625 210.7315625 -42.53125 210.078125 C-36.26973268 201.36016627 -32.66695816 192.21278425 -28.87988281 182.23779297 C-27.77501216 179.42779175 -26.50426854 176.71632791 -25.1875 174 C-20.50994566 163.87761198 -19.22925211 152.86530893 -17.95483398 141.89794922 C-17.6852156 139.60557739 -17.39292187 137.31679042 -17.09960938 135.02734375 C-16.92310457 133.55224716 -16.74792585 132.07699116 -16.57421875 130.6015625 C-16.44160896 129.5889183 -16.44160896 129.5889183 -16.30632019 128.55581665 C-15.82223099 124.1539943 -16.42778401 121.10449973 -18 117 C-18.23046875 113.52734375 -18.23046875 113.52734375 -18.1875 109.9375 C-18.18105469 108.75027344 -18.17460937 107.56304687 -18.16796875 106.33984375 C-18.0220686 103.43880593 -17.66633097 100.81991265 -17 98 C-16.34 98 -15.68 98 -15 98 C-15.061875 97.34 -15.12375 96.68 -15.1875 96 C-14.75966529 89.15464468 -11.10271822 82.99145587 -8 77 C-7.01 77 -6.02 77 -5 77 C-4.93941406 76.43152344 -4.87882812 75.86304688 -4.81640625 75.27734375 C-4.73261719 74.50519531 -4.64882813 73.73304688 -4.5625 72.9375 C-4.48128906 72.18339844 -4.40007812 71.42929687 -4.31640625 70.65234375 C-4.08493431 68.7119802 -3.80454658 66.77727974 -3.49609375 64.84765625 C-2.87958554 60.06607683 -2.68387253 55.31473624 -2.5 50.5 C-2.43037874 48.6769545 -2.35752791 46.85402911 -2.28125 45.03125 C-2.25095703 44.23267578 -2.22066406 43.43410156 -2.18945312 42.61132812 C-2 40 -2 40 -1.50219727 36.67944336 C-0.9742125 32.81106299 -0.77856433 28.99425408 -0.68359375 25.09765625 C-0.66281265 24.3750914 -0.64203156 23.65252655 -0.62062073 22.9080658 C-0.55584574 20.6262963 -0.4965797 18.34442333 -0.4375 16.0625 C-0.39424603 14.50454709 -0.35062969 12.9466042 -0.30664062 11.38867188 C-0.20023961 7.59255078 -0.09877501 3.79632686 0 0 Z " fill="#8D019D" transform="translate(306,204)"/>
<path d="M0 0 C0 5.61 0 11.22 0 17 C-0.66 17 -1.32 17 -2 17 C-1.56107422 18.66675781 -1.56107422 18.66675781 -1.11328125 20.3671875 C-0.07629326 25.02680518 0.44334662 29.6999922 0.89453125 34.4453125 C0.9697702 35.22259705 1.04500916 35.99988159 1.12252808 36.80072021 C1.4340366 40.0511258 1.74093589 43.30164048 2.02368164 46.5546875 C2.89231977 56.41587441 4.31945476 65.30205451 7.7878418 74.60107422 C10.23123254 81.45241077 11.3182698 87.80109536 11.59765625 95.05859375 C11.63684677 95.8883522 11.67603729 96.71811066 11.71641541 97.57301331 C11.83939759 100.19422852 11.95178258 102.81574037 12.0625 105.4375 C12.17799005 108.08416693 12.29582997 110.73066115 12.41929626 113.37696838 C12.49548824 115.01715802 12.56688502 116.65757868 12.6330719 118.29820251 C12.47079806 121.9535157 12.47079806 121.9535157 14 125 C14.20318973 126.41709414 14.34718454 127.84278734 14.46484375 129.26953125 C14.5414624 130.1527002 14.61808105 131.03586914 14.69702148 131.94580078 C14.77637939 132.89181152 14.8557373 133.83782227 14.9375 134.8125 C16.38561051 150.87532504 18.84910562 165.4210448 26 180 C26.29567871 180.61568848 26.59135742 181.23137695 26.89599609 181.86572266 C34.81875195 198.63447491 34.81875195 198.63447491 46.71484375 212.66015625 C48 214 48 214 48 216 C42.35934791 214.66405608 38.34355888 211.67105021 33.76269531 208.29150391 C31.6219691 206.72302168 29.46284155 205.18112903 27.3046875 203.63671875 C25.59840449 202.40441233 23.8926807 201.17133126 22.1875 199.9375 C21.36290283 199.34807617 20.53830566 198.75865234 19.6887207 198.15136719 C15.07690701 194.78450351 11.50766545 191.49649304 8 187 C7.34 186.67 6.68 186.34 6 186 C5.38537141 183.34445159 4.87608483 180.74738175 4.4375 178.0625 C3.71361209 172.88278303 3.71361209 172.88278303 2 168 C1.77532169 166.46331135 1.59203195 164.92031946 1.4375 163.375 C1.35371094 162.55773437 1.26992187 161.74046875 1.18359375 160.8984375 C1.12300781 160.27195312 1.06242187 159.64546875 1 159 C0.01 159 -0.98 159 -2 159 C-2.33 159.99 -2.66 160.98 -3 162 C-4.32 161.67 -5.64 161.34 -7 161 C-7.06731323 160.13387085 -7.06731323 160.13387085 -7.13598633 159.25024414 C-7.9753593 148.69588687 -8.95899946 138.28402753 -10.95751953 127.88134766 C-12.14001758 121.61181928 -12.6789523 115.36560092 -13 109 C-13.99 109 -14.98 109 -16 109 C-16 108.34 -16 107.68 -16 107 C-16.763125 106.855625 -17.52625 106.71125 -18.3125 106.5625 C-21 106 -21 106 -24 105 C-24 104.34 -24 103.68 -24 103 C-24.639375 102.855625 -25.27875 102.71125 -25.9375 102.5625 C-28 102 -28 102 -29 101 C-29.07319621 98.30345146 -29.09242537 95.63308542 -29.0625 92.9375 C-29.05798828 92.17888672 -29.05347656 91.42027344 -29.04882812 90.63867188 C-29.0370068 88.75908129 -29.01907078 86.87953101 -29 85 C-29.66 85 -30.32 85 -31 85 C-31.1854871 76.09015233 -31.32756675 67.18097045 -31.41449738 58.26961231 C-31.45622421 54.13143976 -31.51279905 49.99458927 -31.60351562 45.85717773 C-31.69054271 41.8629684 -31.738293 37.87002899 -31.75901794 33.87494469 C-31.77378295 32.35214933 -31.80261892 30.82942242 -31.84584045 29.30716896 C-32.17020945 17.4080005 -32.17020945 17.4080005 -29.30639648 13.96224976 C-26.55186097 12.16495766 -24.01495384 11.23900512 -20.82727051 10.48835754 C-18.49626097 9.86537037 -17.67390821 8.71157115 -16 7 C-14.3619898 6.09208974 -12.69185288 5.24062659 -11 4.4375 C-1.71028037 0 -1.71028037 0 0 0 Z " fill="#660170" transform="translate(87,204)"/>
<path d="M0 0 C0.66 0.33 1.32 0.66 2 1 C2 2.65 2 4.3 2 6 C2.66 6 3.32 6 4 6 C4 6.99 4 7.98 4 9 C4.66 9 5.32 9 6 9 C6.02499595 14.86750998 6.04299796 20.73498795 6.05493164 26.60253906 C6.05991446 28.59245342 6.06670314 30.58236421 6.07543945 32.57226562 C6.08777375 35.4570403 6.09328888 38.34176597 6.09765625 41.2265625 C6.10281754 42.09487701 6.10797882 42.96319153 6.11329651 43.8578186 C6.11373107 48.80483087 5.90396422 53.69069203 5.52514648 58.6237793 C4.96776747 65.92578185 4.73042528 73.21906235 4.55444336 80.53743553 C4.49852647 82.85401562 4.43826634 85.17044948 4.37695312 87.4868927 C4.20375494 94.06053184 4.03862007 100.63436829 3.875 107.20825195 C3.77392578 111.2574685 3.66842659 115.30655099 3.56030273 119.3555851 C3.500859 121.63502932 3.44667804 123.91456123 3.39257812 126.19413757 C3.35575809 127.58410397 3.31866388 128.97406314 3.28125 130.36401367 C3.25095703 131.57643234 3.22066406 132.78885101 3.18945312 134.03800964 C3 137 3 137 2 140 C1.34 140 0.68 140 0 140 C-0.268125 140.94875 -0.53625 141.8975 -0.8125 142.875 C-2 146 -2 146 -5 148 C-5.99 148 -6.98 148 -8 148 C-8 148.66 -8 149.32 -8 150 C-11.21451269 151.60725635 -14.43612536 151.05748185 -18 151 C-18 151.99 -18 152.98 -18 154 C-18.66 154 -19.32 154 -20 154 C-20.09823222 147.30929407 -20.08251591 140.67170266 -19.63964844 133.99414062 C-19.43228183 130.75458116 -19.28222431 127.51361981 -19.14208984 124.27050781 C-19.03420842 121.7873815 -18.91544571 119.30556567 -18.79150391 116.82324219 C-18.60360126 112.90777932 -18.47837715 108.99330895 -18.38330078 105.07455444 C-18.33633968 103.49125697 -18.27157167 101.90838131 -18.18847656 100.3265686 C-17.93659685 95.38648662 -17.84367222 90.83153084 -19 86 C-22.69685002 82.01692077 -26.96482609 80.6783913 -32 79 C-32 78.34 -32 77.68 -32 77 C-33.134375 76.71125 -34.26875 76.4225 -35.4375 76.125 C-37.2009375 75.568125 -37.2009375 75.568125 -39 75 C-39.33 74.34 -39.66 73.68 -40 73 C-39.34 73 -38.68 73 -38 73 C-37.99178223 72.01193359 -37.98356445 71.02386719 -37.97509766 70.00585938 C-37.93123295 66.30620449 -37.82240699 62.61072162 -37.69482422 58.91308594 C-37.64870104 57.31909475 -37.61972778 55.72450432 -37.60888672 54.12988281 C-37.50134245 40.91021042 -37.50134245 40.91021042 -33.73730469 36.12109375 C-27.46238426 31 -27.46238426 31 -24 31 C-23.814375 30.4225 -23.62875 29.845 -23.4375 29.25 C-21.68551987 26.50777024 -19.60924961 25.55271181 -16.78515625 24.05078125 C-14.0775405 22.45702056 -12.16384333 20.26688349 -10 18 C-8.87464844 17.13568359 -8.87464844 17.13568359 -7.7265625 16.25390625 C-2.86759574 12.56282957 -2.86759574 12.56282957 -0.19921875 7.26171875 C0.03357662 4.80520639 0.12615791 2.46260235 0 0 Z " fill="#01202D" transform="translate(355,135)"/>
<path d="M0 0 C0.33 0 0.66 0 1 0 C1.03738281 0.75925781 1.07476562 1.51851562 1.11328125 2.30078125 C1.17902344 3.29464844 1.24476562 4.28851563 1.3125 5.3125 C1.39951172 6.79169922 1.39951172 6.79169922 1.48828125 8.30078125 C2.05222535 11.27547878 2.62715706 12.19828799 5 14 C5.61875 14.268125 6.2375 14.53625 6.875 14.8125 C9 16 9 16 11.4375 18.9375 C13.85430235 21.82587354 15.79164946 23.16665684 19 25 C19 25.66 19 26.32 19 27 C19.78375 27.0825 20.5675 27.165 21.375 27.25 C22.24125 27.4975 23.1075 27.745 24 28 C25.0625 29.9375 25.0625 29.9375 26 32 C27.76591887 33.00916033 27.76591887 33.00916033 30 34 C32.64411422 35.39079717 34.908397 36.8518327 37 39 C37.78427087 42.10439738 38.08992309 44.2470599 38.12109375 47.36328125 C38.17282494 48.55125557 38.17282494 48.55125557 38.2256012 49.76322937 C38.32793424 52.27966583 38.38335445 54.7946118 38.4375 57.3125 C38.49885772 59.0242023 38.56327775 60.73579776 38.63085938 62.44726562 C38.78939552 66.63110407 38.90589874 70.81423666 39 75 C37.2984375 75.4021875 37.2984375 75.4021875 35.5625 75.8125 C34.386875 76.204375 33.21125 76.59625 32 77 C31.505 78.485 31.505 78.485 31 80 C29.2578125 80.87890625 29.2578125 80.87890625 27.125 81.5625 C24.29073539 82.48808088 22.54841174 83.30105884 20 85 C19.55976374 87.8694157 19.55976374 87.8694157 19.65942383 91.28564453 C19.65898575 91.92967224 19.65854767 92.57369995 19.65809631 93.23724365 C19.66018906 95.36940664 19.68354135 97.50078662 19.70703125 99.6328125 C19.71262552 101.10968598 19.71689641 102.58656502 19.71989441 104.06344604 C19.73135665 107.95326063 19.76083527 111.8427399 19.79400635 115.73242188 C19.82467778 119.70047469 19.83839345 123.6685816 19.85351562 127.63671875 C19.88570401 135.42463214 19.93691655 143.21226911 20 151 C18.54176788 151.0270043 17.08339325 151.04639787 15.625 151.0625 C14.81289063 151.07410156 14.00078125 151.08570313 13.1640625 151.09765625 C11 151 11 151 9 150 C9 149.34 9 148.68 9 148 C8.1028125 147.8453125 8.1028125 147.8453125 7.1875 147.6875 C4.63683235 146.8858616 3.63308005 146.09967436 2 144 C1.3125 141.8125 1.3125 141.8125 1 140 C0.34 140 -0.32 140 -1 140 C-1.94346705 137.16959886 -2.1761594 135.24276572 -2.28125 132.296875 C-2.31798828 131.27948242 -2.35472656 130.26208984 -2.39257812 129.21386719 C-2.42802734 128.07079102 -2.46347656 126.92771484 -2.5 125.75 C-2.54060547 124.5424707 -2.58121094 123.33494141 -2.62304688 122.09082031 C-2.92294822 112.68726635 -3.09252039 103.28187409 -3.25 93.875 C-3.27098755 92.63687561 -3.2919751 91.39875122 -3.31359863 90.12310791 C-3.41948132 83.80839925 -3.51827326 77.49367812 -3.60742188 71.17871094 C-3.64442077 68.82226389 -3.6815255 66.4658185 -3.71875 64.109375 C-3.73228516 63.00335938 -3.74582031 61.89734375 -3.75976562 60.7578125 C-3.77652344 59.74944336 -3.79328125 58.74107422 -3.81054688 57.70214844 C-3.82307495 56.8147699 -3.83560303 55.92739136 -3.84851074 55.01312256 C-3.77976724 53.00288183 -3.77976724 53.00288183 -5 52 C-5.09268999 50.64905018 -5.11747326 49.29332909 -5.11352539 47.93920898 C-5.11344986 47.07839218 -5.11337433 46.21757538 -5.11329651 45.33067322 C-5.10813522 44.39526199 -5.10297394 43.45985077 -5.09765625 42.49609375 C-5.0962413 41.54307877 -5.09482635 40.59006378 -5.09336853 39.60816956 C-5.08775152 36.55124835 -5.07519616 33.49439923 -5.0625 30.4375 C-5.05748719 28.37044376 -5.05292391 26.30338638 -5.04882812 24.23632812 C-5.03777656 19.15752412 -5.02050055 14.0787743 -5 9 C-4.34 9 -3.68 9 -3 9 C-3 8.01 -3 7.02 -3 6 C-2.34 6 -1.68 6 -1 6 C-0.67 4.02 -0.34 2.04 0 0 Z " fill="#00212C" transform="translate(37,135)"/>
<path d="M0 0 C-0.45229467 3.31335304 -0.91296275 6.62549263 -1.375 9.9375 C-1.56449219 11.32678711 -1.56449219 11.32678711 -1.7578125 12.74414062 C-2.36011143 17.03552049 -3.01810008 21.25391388 -4.03125 25.46875 C-5.26742746 30.78265379 -5.68667081 36.13368517 -6.125 41.5625 C-6.21136719 42.57119141 -6.29773438 43.57988281 -6.38671875 44.61914062 C-6.59656659 47.07902365 -6.80088467 49.53922902 -7 52 C-8.98 52.495 -8.98 52.495 -11 53 C-11.33 52.01 -11.66 51.02 -12 50 C-12.99 50 -13.98 50 -15 50 C-15.09087891 51.06541016 -15.09087891 51.06541016 -15.18359375 52.15234375 C-15.26738281 53.07144531 -15.35117187 53.99054688 -15.4375 54.9375 C-15.51871094 55.85402344 -15.59992188 56.77054687 -15.68359375 57.71484375 C-16 60 -16 60 -17 61 C-17.52413119 64.30315773 -18.04610934 67.60236196 -18.45507812 70.921875 C-19.09141142 74.9237861 -19.78387159 77.23736427 -22.96875 79.8671875 C-23.9690625 80.57101562 -24.969375 81.27484375 -26 82 C-27.1446875 83.175625 -27.1446875 83.175625 -28.3125 84.375 C-35.21906855 91.12095067 -44.83295764 99.94431921 -54 103 C-54.99 103.99 -54.99 103.99 -56 105 C-56.66 104.34 -57.32 103.68 -58 103 C-57.5153125 102.36578125 -57.030625 101.7315625 -56.53125 101.078125 C-50.26973268 92.36016627 -46.66695816 83.21278425 -42.87988281 73.23779297 C-41.77501216 70.42779175 -40.50426854 67.71632791 -39.1875 65 C-34.29940952 54.42790367 -33.20386348 42.94552611 -31.9375 31.5 C-31.62193817 28.65517677 -31.29633718 25.8117555 -30.96484375 22.96875 C-30.8268335 21.72544922 -30.68882324 20.48214844 -30.54663086 19.20117188 C-29.91128098 15.48044494 -29.42207982 13.0357878 -26.30761719 10.76733398 C-25.3122998 10.26182007 -25.3122998 10.26182007 -24.296875 9.74609375 C-23.19666016 9.17665039 -23.19666016 9.17665039 -22.07421875 8.59570312 C-21.30722656 8.21349609 -20.54023438 7.83128906 -19.75 7.4375 C-18.99847656 7.05142578 -18.24695313 6.66535156 -17.47265625 6.26757812 C-15.99834248 5.51241043 -14.51988185 4.76527616 -13.03710938 4.02685547 C-11.25982635 3.13097191 -9.50992384 2.18117796 -7.765625 1.22265625 C-4.86178168 -0.06110499 -3.11912068 -0.10242182 0 0 Z " fill="#030203" transform="translate(320,313)"/>
<path d="M0 0 C3.28611679 0.6754374 5.96602913 1.89453284 8.9375 3.4375 C12.23938425 5.14713095 15.52856123 6.66483124 19 8 C19 8.66 19 9.32 19 10 C20.423125 10.0928125 20.423125 10.0928125 21.875 10.1875 C25 11 25 11 26.1328125 12.921875 C27.3566212 17.26584461 27.65086474 21.57407096 28 26.0625 C29.39200147 42.04656413 31.88725901 56.49883039 39 71 C39.29567871 71.61568848 39.59135742 72.23137695 39.89599609 72.86572266 C47.81875195 89.63447491 47.81875195 89.63447491 59.71484375 103.66015625 C61 105 61 105 61 107 C55.35934791 105.66405608 51.34355888 102.67105021 46.76269531 99.29150391 C44.6219691 97.72302168 42.46284155 96.18112903 40.3046875 94.63671875 C38.59840449 93.40441233 36.8926807 92.17133126 35.1875 90.9375 C34.36290283 90.34807617 33.53830566 89.75865234 32.6887207 89.15136719 C28.07690701 85.78450351 24.50766545 82.49649304 21 78 C20.34 77.67 19.68 77.34 19 77 C18.38537141 74.34445159 17.87608483 71.74738175 17.4375 69.0625 C16.71361209 63.88278303 16.71361209 63.88278303 15 59 C14.77532169 57.46331135 14.59203195 55.92031946 14.4375 54.375 C14.31181641 53.14910156 14.31181641 53.14910156 14.18359375 51.8984375 C14.12300781 51.27195312 14.06242187 50.64546875 14 50 C13.01 50 12.02 50 11 50 C10.67 50.99 10.34 51.98 10 53 C8.68 52.67 7.36 52.34 6 52 C5.95512451 51.42258057 5.91024902 50.84516113 5.86401367 50.25024414 C5.0246407 39.69588687 4.04100054 29.28402753 2.04248047 18.88134766 C0.85998242 12.61181928 0.3210477 6.36560092 0 0 Z " fill="#020202" transform="translate(74,313)"/>
<path d="M0 0 C0.66 0 1.32 0 2 0 C2 2.64 2 5.28 2 8 C4.31 8.33 6.62 8.66 9 9 C9 7.68 9 6.36 9 5 C9.66 5.33 10.32 5.66 11 6 C10.85890014 8.10448938 10.71195825 10.2085877 10.5625 12.3125 C10.48128906 13.48425781 10.40007812 14.65601563 10.31640625 15.86328125 C10 19 10 19 9 22 C6.03 22.33 3.06 22.66 0 23 C0 15.41 0 7.82 0 0 Z " fill="#09151F" transform="translate(296,198)"/>
<path d="M0 0 C1.32707977 -0.00956978 1.32707977 -0.00956978 2.68096924 -0.01933289 C3.64444275 -0.02044571 4.60791626 -0.02155853 5.60058594 -0.02270508 C6.58613464 -0.02603348 7.57168335 -0.02936188 8.58709717 -0.03279114 C10.67866549 -0.03786615 12.77024194 -0.04019929 14.86181641 -0.04003906 C18.05742868 -0.04221756 21.25269144 -0.06034513 24.44824219 -0.0793457 C26.47818892 -0.08228112 28.5081373 -0.08426492 30.53808594 -0.08520508 C31.49346252 -0.09239059 32.44883911 -0.09957611 33.4331665 -0.10697937 C37.99771243 -0.09132912 41.70035262 -0.04981967 45.83496094 2.14526367 C45.83496094 2.80526367 45.83496094 3.46526367 45.83496094 4.14526367 C44.87831543 3.98300293 43.92166992 3.82074219 42.93603516 3.65356445 C38.36111454 3.00344491 33.83148528 3.0015607 29.21777344 3.01245117 C28.3200119 3.01149445 27.42225037 3.01053772 26.49728394 3.009552 C24.61309743 3.00887503 22.72890852 3.01069546 20.84472656 3.01489258 C17.94818987 3.02028559 15.05180559 3.014912 12.15527344 3.00854492 C10.32193976 3.00920505 8.48860618 3.01048485 6.65527344 3.01245117 C5.78556915 3.01042694 4.91586487 3.00840271 4.01980591 3.00631714 C0.11424399 2.63289284 0.11424399 2.63289284 -3.16503906 4.14526367 C-4.68431944 4.21706331 -6.20671388 4.22918374 -7.72753906 4.20776367 C-8.55382812 4.19874023 -9.38011719 4.1897168 -10.23144531 4.18041992 C-10.86953125 4.16881836 -11.50761719 4.1572168 -12.16503906 4.14526367 C-12.16503906 3.48526367 -12.16503906 2.82526367 -12.16503906 2.14526367 C-11.03066406 2.00088867 -9.89628906 1.85651367 -8.72753906 1.70776367 C-5.16005723 1.14447707 -3.63051473 0.01769398 0 0 Z " fill="#02383E" transform="translate(178.1650390625,22.854736328125)"/>
<path d="M0 0 C0.33 0 0.66 0 1 0 C2.05253638 11.35235662 2.10313358 22.60946892 2 34 C0.906875 34.12375 -0.18625 34.2475 -1.3125 34.375 C-5.07381802 34.75464801 -5.07381802 34.75464801 -8 37 C-8.495 29.575 -8.495 29.575 -9 22 C-8.34 22 -7.68 22 -7 22 C-6.34 24.97 -5.68 27.94 -5 31 C-3.02 31 -1.04 31 1 31 C0.9278125 30.35417969 0.855625 29.70835937 0.78125 29.04296875 C-0.17274356 19.35728418 -0.09150439 9.71980008 0 0 Z " fill="#074441" transform="translate(95,181)"/>
<path d="M0 0 C0.33 0 0.66 0 1 0 C1.09765625 6.15234375 1.09765625 6.15234375 1 8 C0 9 0 9 -2.5625 9.0625 C-3.366875 9.041875 -4.17125 9.02125 -5 9 C-7.15761573 13.1713904 -8.12486983 16.39752 -8.09765625 21.10546875 C-8.09443359 22.08837891 -8.09121094 23.07128906 -8.08789062 24.08398438 C-8.07951172 25.10814453 -8.07113281 26.13230469 -8.0625 27.1875 C-8.05798828 28.22326172 -8.05347656 29.25902344 -8.04882812 30.32617188 C-8.0370401 32.88417266 -8.02058515 35.44205733 -8 38 C-8.33 38 -8.66 38 -9 38 C-9.13277344 36.86820313 -9.26554687 35.73640625 -9.40234375 34.5703125 C-9.5805342 33.08851821 -9.75893029 31.60674864 -9.9375 30.125 C-10.02451172 29.37863281 -10.11152344 28.63226563 -10.20117188 27.86328125 C-10.63326063 23.8046769 -10.63326063 23.8046769 -12 20 C-12.04022391 17.6670134 -12.04320247 15.33293334 -12 13 C-11.34 13 -10.68 13 -10 13 C-9.87625 12.38125 -9.7525 11.7625 -9.625 11.125 C-9 9 -9 9 -7 7 C-3.375 6.875 -3.375 6.875 0 7 C0 4.69 0 2.38 0 0 Z " fill="#156B7A" transform="translate(97,208)"/>
<path d="M0 0 C0.33 0 0.66 0 1 0 C1 3.63 1 7.26 1 11 C5.455 10.505 5.455 10.505 10 10 C10.33 9.01 10.66 8.02 11 7 C11.02932572 10.18748029 11.04690739 13.37492528 11.0625 16.5625 C11.07087891 17.45775391 11.07925781 18.35300781 11.08789062 19.27539062 C11.10629571 24.29997943 10.86266398 29.04817291 10 34 C9.67 34 9.34 34 9 34 C9.33 27.07 9.66 20.14 10 13 C5.545 13.495 5.545 13.495 1 14 C0 13 0 13 -0.09765625 10.05859375 C-0.08605469 8.86363281 -0.07445312 7.66867188 -0.0625 6.4375 C-0.05347656 5.23996094 -0.04445313 4.04242188 -0.03515625 2.80859375 C-0.02355469 1.88175781 -0.01195312 0.95492187 0 0 Z " fill="#165B6F" transform="translate(295,210)"/>
<path d="M0 0 C0.33 0 0.66 0 1 0 C1 5.94 1 11.88 1 18 C3.31 17.34 5.62 16.68 8 16 C8.33 15.01 8.66 14.02 9 13 C9 15.97 9 18.94 9 22 C6.03 22.33 3.06 22.66 0 23 C0 15.41 0 7.82 0 0 Z " fill="#003E3B" transform="translate(296,198)"/>
<path d="M0 0 C7.08076251 -0.40850553 13.19925959 1.09579269 20 3 C20 3.66 20 4.32 20 5 C21.11375 5.103125 22.2275 5.20625 23.375 5.3125 C25.169375 5.6528125 25.169375 5.6528125 27 6 C27.99 7.485 27.99 7.485 29 9 C25.7 8.34 22.4 7.68 19 7 C19 6.34 19 5.68 19 5 C17.783125 4.87625 16.56625 4.7525 15.3125 4.625 C11.90622955 4.20595091 9.16989515 3.33469269 6 2 C4.0075675 1.62406934 2.0081326 1.28020455 0 1 C0 0.67 0 0.34 0 0 Z " fill="#013137" transform="translate(241,28)"/>
<path d="M0 0 C0.66 0.33 1.32 0.66 2 1 C-0.09990855 4.78925806 -2.44665396 7.74388723 -5.5 10.8125 C-6.2734375 11.60269531 -7.046875 12.39289062 -7.84375 13.20703125 C-10 15 -10 15 -13 15 C-12.67 14.01 -12.34 13.02 -12 12 C-11.34 12 -10.68 12 -10 12 C-9.34 10.68 -8.68 9.36 -8 8 C-7.34 8 -6.68 8 -6 8 C-5.34 6.68 -4.68 5.36 -4 4 C-3.34 4 -2.68 4 -2 4 C-1.34 2.68 -0.68 1.36 0 0 Z " fill="#01383F" transform="translate(84,31)"/>
<path d="M0 0 C0 0.33 0 0.66 0 1 C-1.7015625 1.2165625 -1.7015625 1.2165625 -3.4375 1.4375 C-6.80777201 1.61171478 -6.80777201 1.61171478 -8 3 C-10.69235776 3.23678716 -13.36498156 3.42198025 -16.0625 3.5625 C-17.20041992 3.62727539 -17.20041992 3.62727539 -18.36132812 3.69335938 C-20.24065438 3.79973633 -22.12030244 3.90039934 -24 4 C-24 3.34 -24 2.68 -24 2 C-15.97649696 0.81603117 -8.13544686 -0.28545428 0 0 Z " fill="#01343A" transform="translate(163,2)"/>
<path d="M0 0 C2.05078125 0.03255208 4.1015625 0.06510417 6.15234375 0.09765625 C6.48234375 0.75765625 6.81234375 1.41765625 7.15234375 2.09765625 C6.19972656 2.21882813 5.24710938 2.34 4.265625 2.46484375 C3.01136719 2.63242187 1.75710937 2.8 0.46484375 2.97265625 C-0.77652344 3.13507812 -2.01789063 3.2975 -3.296875 3.46484375 C-6.43940903 4.02489932 -8.92506205 4.87948214 -11.84765625 6.09765625 C-12.83765625 6.09765625 -13.82765625 6.09765625 -14.84765625 6.09765625 C-14.84765625 5.43765625 -14.84765625 4.77765625 -14.84765625 4.09765625 C-13.99300781 3.89269531 -13.13835937 3.68773437 -12.2578125 3.4765625 C-11.15308594 3.20714844 -10.04835937 2.93773437 -8.91015625 2.66015625 C-7.25693359 2.25990234 -7.25693359 2.25990234 -5.5703125 1.8515625 C-3.18873893 1.19210239 -2.29432449 0.12126451 0 0 Z " fill="#013035" transform="translate(152.84765625,25.90234375)"/>
<path d="M0 0 C2.70860124 0.14176421 5.41680752 0.28828216 8.125 0.4375 C9.26582031 0.49647461 9.26582031 0.49647461 10.4296875 0.55664062 C14.68509203 0.79509002 18.80370826 1.20230237 23 2 C23 2.66 23 3.32 23 4 C17.72 3.67 12.44 3.34 7 3 C7 2.34 7 1.68 7 1 C4.69 1 2.38 1 0 1 C0 0.67 0 0.34 0 0 Z " fill="#013439" transform="translate(231,2)"/>
<path d="M0 0 C2.76276177 0.52268466 5.3260876 1.10869587 8 2 C8 2.66 8 3.32 8 4 C8.680625 4.0825 9.36125 4.165 10.0625 4.25 C13.8746907 5.22332528 16.64070329 6.95807455 20 9 C17.83032311 9.95465783 16.43671207 10.14401212 14.17578125 9.3984375 C12.4315257 8.64129615 10.71372869 7.82390802 9 7 C9 6.34 9 5.68 9 5 C6.69 4.34 4.38 3.68 2 3 C2 2.34 2 1.68 2 1 C1.34 0.67 0.68 0.34 0 0 Z " fill="#013236" transform="translate(278,14)"/>
<path d="M0 0 C3.3 0 6.6 0 10 0 C10 0.66 10 1.32 10 2 C9.01 2 8.02 2 7 2 C7 2.66 7 3.32 7 4 C4.69 4.33 2.38 4.66 0 5 C0 3.35 0 1.7 0 0 Z " fill="#007C75" transform="translate(295,223)"/>
<path d="M0 0 C0.66 0 1.32 0 2 0 C2.66 2.97 3.32 5.94 4 9 C5.98 9 7.96 9 10 9 C7 11 7 11 1 13 C0.67 8.71 0.34 4.42 0 0 Z " fill="#0F1B29" transform="translate(86,203)"/>
<path d="M0 0 C0.66 0.33 1.32 0.66 2 1 C0.95600254 2.34786992 -0.11102066 3.67792729 -1.1875 5 C-1.77917969 5.7425 -2.37085938 6.485 -2.98046875 7.25 C-5 9 -5 9 -7.73828125 9.25 C-8.48464844 9.1675 -9.23101562 9.085 -10 9 C-6.83047153 5.73991357 -3.60062011 2.77762123 0 0 Z " fill="#005D58" transform="translate(181,145)"/>
<path d="M0 0 C0.66 0.33 1.32 0.66 2 1 C-1.0657052 5.65987191 -3.58657319 6.85485202 -9 8 C-6.14723863 5.06799526 -3.34920216 2.35684596 0 0 Z " fill="#01343B" transform="translate(95,23)"/>
<path d="M0 0 C0.33 0 0.66 0 1 0 C2.4002792 5.46108889 1.42705634 9.69276568 0 15 C-0.66 15 -1.32 15 -2 15 C-2.04241723 12.66705225 -2.04092937 10.33297433 -2 8 C-1.67 7.67 -1.34 7.34 -1 7 C-0.63239269 4.67182036 -0.29758419 2.3381615 0 0 Z " fill="#01373B" transform="translate(64,103)"/>
<path d="M0 0 C-3 2 -3 2 -5 2.75 C-7.88228057 4.55142536 -8.67283847 6.94752849 -10 10 C-10.33 10 -10.66 10 -11 10 C-11.3125 7.8125 -11.3125 7.8125 -11 5 C-7.65953926 0.57880196 -5.52265388 -0.64216906 0 0 Z " fill="#139E97" transform="translate(109,203)"/>
<path d="M0 0 C3.56720996 2.67540747 6.41126424 5.35659412 9 9 C9 9.66 9 10.32 9 11 C5.23066918 9.74355639 4.26505795 8.21492096 2 5 C0.75 2.1875 0.75 2.1875 0 0 Z " fill="#00323A" transform="translate(317,40)"/>
<path d="M0 0 C3.30286086 1.10095362 3.78510901 1.6896019 5.6875 4.4375 C6.34298828 5.36369141 6.34298828 5.36369141 7.01171875 6.30859375 C8 8 8 8 8 10 C7.34 10 6.68 10 6 10 C4.4921875 8.3203125 4.4921875 8.3203125 2.875 6.125 C2.33617187 5.40570313 1.79734375 4.68640625 1.2421875 3.9453125 C0 2 0 2 0 0 Z " fill="#013239" transform="translate(308,65)"/>
<path d="M0 0 C2.97 0.99 5.94 1.98 9 3 C8.67 3.99 8.34 4.98 8 6 C7.67 5.34 7.34 4.68 7 4 C4.67843403 3.59270772 2.3431213 3.25561323 0 3 C0 2.01 0 1.02 0 0 Z " fill="#19A099" transform="translate(88,231)"/>
<path d="M0 0 C0.33 1.32 0.66 2.64 1 4 C2.65 3.67 4.3 3.34 6 3 C4.02579865 5.52259061 3.03254358 5.9929808 -0.1875 6.6875 C-1.5796875 6.8421875 -1.5796875 6.8421875 -3 7 C-2.01 4.69 -1.02 2.38 0 0 Z " fill="#004F4B" transform="translate(165,168)"/>
<path d="M0 0 C0 3.34419152 -0.47519394 4.06840321 -2.375 6.6875 C-2.81585938 7.31011719 -3.25671875 7.93273437 -3.7109375 8.57421875 C-4.13632813 9.04472656 -4.56171875 9.51523438 -5 10 C-5.66 10 -6.32 10 -7 10 C-6.625 8.0625 -6.625 8.0625 -6 6 C-5.34 5.67 -4.68 5.34 -4 5 C-3.67 4.34 -3.34 3.68 -3 3 C-2 1 -2 1 0 0 Z " fill="#013337" transform="translate(84,65)"/>
<path d="M0 0 C0 0.99 0 1.98 0 3 C-0.99 3.33 -1.98 3.66 -3 4 C-4.20882096 6.00016466 -4.20882096 6.00016466 -5 8 C-5.66 8 -6.32 8 -7 8 C-7 7.01 -7 6.02 -7 5 C-6.01 5 -5.02 5 -4 5 C-3.896875 4.360625 -3.79375 3.72125 -3.6875 3.0625 C-3.460625 2.381875 -3.23375 1.70125 -3 1 C-2.01 0.67 -1.02 0.34 0 0 Z " fill="#012E33" transform="translate(100,49)"/>
<path d="M0 0 C0.66 0 1.32 0 2 0 C0.53563715 4.63714903 0.53563715 4.63714903 -1.9375 6.3125 C-4 7 -4 7 -7 7 C-7 6.34 -7 5.68 -7 5 C-5.5459375 4.5978125 -5.5459375 4.5978125 -4.0625 4.1875 C-3.051875 3.795625 -2.04125 3.40375 -1 3 C-0.67 2.01 -0.34 1.02 0 0 Z " fill="#01393E" transform="translate(108,42)"/>
<path d="M0 0 C1.64767247 0.28109113 3.29313145 0.57518526 4.9375 0.875 C5.85402344 1.03742187 6.77054687 1.19984375 7.71484375 1.3671875 C8.46894531 1.57601563 9.22304688 1.78484375 10 2 C10.33 2.66 10.66 3.32 11 4 C9.54054712 3.91291331 8.08234132 3.80473093 6.625 3.6875 C5.81289063 3.62949219 5.00078125 3.57148438 4.1640625 3.51171875 C2 3 2 3 0 0 Z " fill="#003238" transform="translate(267,10)"/>
<path d="M0 0 C-0.33 0.99 -0.66 1.98 -1 3 C-4.5625 4.6875 -4.5625 4.6875 -8 6 C-8.66 5.34 -9.32 4.68 -10 4 C-8.35 3.67 -6.7 3.34 -5 3 C-5 2.34 -5 1.68 -5 1 C-2 0 -2 0 0 0 Z " fill="#002C32" transform="translate(112,15)"/>
<path d="M0 0 C-6.4 3.07692308 -6.4 3.07692308 -9.4375 2.6875 C-9.953125 2.460625 -10.46875 2.23375 -11 2 C-3.57142857 -1.57142857 -3.57142857 -1.57142857 0 0 Z " fill="#012D32" transform="translate(123,12)"/>
<path d="M0 0 C0 0.66 0 1.32 0 2 C-2.90600261 3.25664978 -4.79604584 4 -8 4 C-8 3.34 -8 2.68 -8 2 C-5.09399739 0.74335022 -3.20395416 0 0 0 Z " fill="#730082" transform="translate(330,307)"/>
</svg>
